<?xml version="1.0" encoding="utf-8"?>
<!-- Generator: Adobe Illustrator 18.1.1, SVG Export Plug-In . SVG Version: 6.00 Build 0)  -->
<svg version="1.1" id="Layer_1" xmlns="http://www.w3.org/2000/svg" xmlns:xlink="http://www.w3.org/1999/xlink" x="0px" y="0px"
	 viewBox="0 0 213.9 77" enable-background="new 0 0 213.9 77" xml:space="preserve">
<g>
	<path fill="#266093" d="M202,55.2h0.9v-5.8c0-0.3,0.1-0.6,0.1-0.8c0.4-1.2,1.5-2.2,2.8-2.2c1.9,0,2.6,1.6,2.6,3.3v5.6h0.9v-5.7
		c0-3.5-2.4-4-3.3-4c-1.5,0-2.7,0.9-3.2,1.9h0l-0.1-1.7h-0.9c0.1,0.7,0.1,1.4,0.1,2.3V55.2z M195.4,46.4c2.5,0,3.5,2.4,3.5,4.1
		c0,2.4-1.6,4.2-3.5,4.2c-1.9,0-3.4-1.8-3.4-4.1C191.9,48.5,193,46.4,195.4,46.4 M195.4,45.6c-2.3,0-4.5,1.8-4.5,5
		c0,2.9,1.9,4.9,4.3,4.9c2.1,0,4.5-1.5,4.5-5C199.8,47.6,198,45.6,195.4,45.6 M188.5,42.3c-0.4,0-0.8,0.4-0.8,0.8
		c0,0.4,0.3,0.8,0.7,0.8c0.5,0,0.8-0.4,0.8-0.8C189.3,42.7,188.9,42.3,188.5,42.3 M189,45.8H188v9.4h0.9V45.8z M181.7,44.1v1.7h-1.6
		v0.8h1.6v6c0,1,0.2,1.8,0.6,2.3c0.4,0.5,0.9,0.7,1.6,0.7c0.6,0,1-0.1,1.3-0.2l-0.1-0.7c-0.2,0.1-0.6,0.1-1.1,0.1
		c-1,0-1.4-0.7-1.4-1.9v-6.1h2.7v-0.8h-2.7v-2.1L181.7,44.1z M177.8,52.2c0,0.2,0,0.4-0.1,0.6c-0.3,0.9-1.2,1.9-2.8,1.9
		c-1,0-1.9-0.6-1.9-2c0-2.3,2.7-2.6,4.8-2.5V52.2z M178.7,49.3c0-1.7-0.5-3.7-3.3-3.7c-0.8,0-1.9,0.2-2.8,0.8l0.3,0.7
		c0.7-0.5,1.6-0.7,2.4-0.7c2.2,0,2.4,1.8,2.4,2.8v0.3c-3.9,0-5.8,1.3-5.8,3.5c0,1.3,0.9,2.6,2.8,2.6c1.5,0,2.6-0.8,3-1.6h0l0.1,1.4
		h0.9c-0.1-0.7-0.1-1.5-0.1-2.2V49.3z M168.8,42.3c-0.4,0-0.8,0.4-0.8,0.8c0,0.4,0.3,0.8,0.7,0.8c0.5,0,0.8-0.4,0.8-0.8
		C169.6,42.7,169.2,42.3,168.8,42.3 M169.3,45.8h-0.9v9.4h0.9V45.8z M165.8,54.1c-0.5,0.2-1.2,0.5-2.4,0.5c-2.2,0-3.7-1.6-3.7-4.1
		c0-2.2,1.3-4.1,3.8-4.1c1,0,1.8,0.3,2.2,0.6l0.3-0.8c-0.4-0.3-1.3-0.6-2.5-0.6c-2.8,0-4.9,2-4.9,5c0,2.8,1.8,4.8,4.5,4.8
		c1.4,0,2.4-0.4,2.8-0.6L165.8,54.1z M152.4,46.4c2.5,0,3.5,2.4,3.5,4.1c0,2.4-1.6,4.2-3.5,4.2c-1.9,0-3.4-1.8-3.4-4.1
		C148.9,48.5,150,46.4,152.4,46.4 M152.4,45.6c-2.3,0-4.5,1.8-4.5,5c0,2.9,1.9,4.9,4.3,4.9c2.1,0,4.5-1.5,4.5-5
		C156.8,47.6,155,45.6,152.4,45.6 M140.3,54.8c0.6,0.4,1.5,0.6,2.4,0.6c1.9,0,3.2-1.1,3.2-2.7c0-1.4-0.9-2.2-2.4-2.8
		c-1.3-0.5-1.9-1-1.9-1.9c0-0.9,0.6-1.6,1.8-1.6c0.9,0,1.6,0.3,1.9,0.6l0.4-0.8c-0.5-0.3-1.2-0.6-2.1-0.6c-1.8,0-2.9,1.2-2.9,2.6
		c0,1.1,0.8,2,2.4,2.6c1.4,0.5,2,1.1,2,2.1c0,1-0.7,1.8-2.2,1.8c-0.8,0-1.6-0.3-2.1-0.6L140.3,54.8z M132.7,54.8
		c0.6,0.4,1.5,0.6,2.4,0.6c1.9,0,3.2-1.1,3.2-2.7c0-1.4-0.9-2.2-2.4-2.8c-1.3-0.5-1.9-1-1.9-1.9c0-0.9,0.6-1.6,1.8-1.6
		c0.9,0,1.6,0.3,1.9,0.6l0.4-0.8c-0.5-0.3-1.2-0.6-2.1-0.6c-1.8,0-2.9,1.2-2.9,2.6c0,1.1,0.8,2,2.4,2.6c1.4,0.5,2,1.1,2,2.1
		c0,1-0.7,1.8-2.2,1.8c-0.8,0-1.6-0.3-2.1-0.6L132.7,54.8z M123.4,49.8l1.6-4.5c0.3-0.8,0.5-1.5,0.7-2.3h0.1
		c0.2,0.7,0.4,1.4,0.7,2.3l1.6,4.4H123.4z M128.4,50.6l1.7,4.6h1L126.2,42h-0.9l-4.8,13.2h1l1.6-4.6H128.4z"/>
	<path fill="#266093" d="M183.9,30.3c0,0.3-0.1,0.7-0.2,1c-0.5,1.4-1.7,2.1-2.9,2.1c-2.2,0-3.3-1.8-3.3-4c0-2.5,1.4-4.1,3.4-4.1
		c1.6,0,2.5,1,2.9,2.1c0.1,0.3,0.1,0.6,0.1,0.9V30.3z M184.8,27.3c0-1,0-1.7,0.1-2.4H184l-0.1,1.6h0c-0.4-0.8-1.3-1.8-3.2-1.8
		c-2.1,0-4.2,1.7-4.2,5c0,2.6,1.7,4.6,4,4.6c1.7,0,2.8-0.9,3.3-1.8h0v1.3c0,2.8-1.4,3.8-3.4,3.8c-1.2,0-2.1-0.4-2.8-0.8l-0.3,0.7
		c0.7,0.5,1.9,0.8,3,0.8c1.1,0,2.3-0.3,3.2-1.1c0.8-0.7,1.3-1.9,1.3-4.4V27.3z M166.9,34.2h0.9v-5.8c0-0.3,0.1-0.6,0.1-0.8
		c0.4-1.2,1.5-2.2,2.8-2.2c1.9,0,2.6,1.6,2.6,3.3v5.6h0.9v-5.7c0-3.5-2.4-4-3.3-4c-1.5,0-2.7,0.9-3.2,1.9h0l-0.1-1.7h-0.9
		c0.1,0.7,0.1,1.4,0.1,2.3V34.2z M163.3,21.3c-0.4,0-0.8,0.4-0.8,0.8c0,0.4,0.3,0.8,0.7,0.8c0.5,0,0.8-0.4,0.8-0.8
		C164.1,21.7,163.7,21.3,163.3,21.3 M163.8,24.8h-0.9v9.4h0.9V24.8z M152.5,34.2h0.9v-5.8c0-0.3,0.1-0.6,0.1-0.8
		c0.4-1.2,1.5-2.2,2.8-2.2c1.9,0,2.6,1.6,2.6,3.3v5.6h0.9v-5.7c0-3.5-2.4-4-3.3-4c-1.5,0-2.7,0.9-3.2,1.9h0l-0.1-1.7h-0.9
		c0.1,0.7,0.1,1.4,0.1,2.3V34.2z M142.2,34.2h0.9v-5.8c0-0.3,0.1-0.6,0.1-0.8c0.4-1.2,1.5-2.2,2.8-2.2c1.9,0,2.6,1.6,2.6,3.3v5.6
		h0.9v-5.7c0-3.5-2.4-4-3.3-4c-1.5,0-2.7,0.9-3.2,1.9h0l-0.1-1.7h-0.9c0.1,0.7,0.1,1.4,0.1,2.3V34.2z M138.4,31.2
		c0,0.2,0,0.4-0.1,0.6c-0.3,0.9-1.2,1.9-2.8,1.9c-1,0-1.9-0.6-1.9-2c0-2.3,2.7-2.6,4.8-2.5V31.2z M139.3,28.3c0-1.7-0.5-3.7-3.3-3.7
		c-0.8,0-1.9,0.2-2.8,0.8l0.3,0.7c0.7-0.5,1.6-0.7,2.4-0.7c2.2,0,2.4,1.8,2.4,2.8v0.3c-3.9,0-5.8,1.3-5.8,3.5c0,1.3,0.9,2.6,2.8,2.6
		c1.5,0,2.6-0.8,3-1.6h0l0.1,1.4h0.9c-0.1-0.7-0.1-1.5-0.1-2.2V28.3z M129.3,34.2h0.9v-14h-0.9V34.2z M121.5,21.8
		c0.4-0.1,1-0.2,1.9-0.2c2.1,0,3.6,0.9,3.6,3c0,2.1-1.4,3.2-3.8,3.2c-0.6,0-1.2,0-1.7-0.2V21.8z M120.5,34.2h0.9v-5.7
		c0.5,0.1,1,0.2,1.6,0.2c1.6,0,3-0.5,3.9-1.5c0.6-0.7,0.9-1.5,0.9-2.7c0-1.1-0.4-2-1-2.6c-0.7-0.7-1.9-1.1-3.5-1.1
		c-1.1,0-2.1,0.1-2.8,0.3V34.2z"/>
	<path fill="#266093" d="M186,13.2h0.9V7.4c0-0.3,0.1-0.6,0.1-0.8c0.4-1.2,1.5-2.2,2.8-2.2c1.9,0,2.6,1.6,2.6,3.3v5.6h0.9V7.6
		c0-3.5-2.4-4-3.3-4c-1.5,0-2.7,0.9-3.2,1.9h0l-0.1-1.7h-0.9c0.1,0.7,0.1,1.4,0.1,2.3V13.2z M182.4,10.2c0,0.2,0,0.4-0.1,0.6
		c-0.3,0.9-1.2,1.9-2.8,1.9c-1,0-1.9-0.6-1.9-2c0-2.3,2.7-2.6,4.8-2.5V10.2z M183.4,7.3c0-1.7-0.5-3.7-3.3-3.7
		c-0.8,0-1.9,0.2-2.8,0.8l0.3,0.7c0.7-0.5,1.6-0.7,2.4-0.7c2.2,0,2.4,1.8,2.4,2.8v0.3c-3.9,0-5.8,1.3-5.8,3.5c0,1.3,0.9,2.6,2.8,2.6
		c1.5,0,2.6-0.8,3-1.6h0l0.1,1.4h0.9c-0.1-0.7-0.1-1.5-0.1-2.2V7.3z M175.4,12.1c-0.5,0.2-1.2,0.5-2.4,0.5c-2.2,0-3.7-1.6-3.7-4.1
		c0-2.2,1.3-4.1,3.8-4.1c1,0,1.8,0.3,2.2,0.6l0.3-0.8c-0.4-0.3-1.3-0.6-2.5-0.6c-2.8,0-4.9,2-4.9,5c0,2.8,1.8,4.8,4.5,4.8
		c1.4,0,2.4-0.4,2.8-0.6L175.4,12.1z M165.3,0.3c-0.4,0-0.8,0.4-0.8,0.8c0,0.4,0.3,0.8,0.7,0.8c0.5,0,0.8-0.4,0.8-0.8
		C166,0.7,165.7,0.3,165.3,0.3 M165.7,3.8h-0.9v9.4h0.9V3.8z M158.6,13.2h0.9V8c0-0.3,0-0.6,0.1-0.9c0.3-1.5,1.2-2.6,2.5-2.6
		c0.2,0,0.3,0,0.5,0V3.6c-0.1,0-0.3,0-0.4,0c-1.3,0-2.3,0.9-2.7,2.1h-0.1l0-1.9h-0.9c0.1,0.9,0.1,1.9,0.1,2.8V13.2z M149.3,7.7
		c0.2-1.5,1.1-3.3,3.2-3.3c2.3,0,2.8,2,2.8,3.3H149.3z M156.2,8.4c0-0.2,0-0.3,0-0.6c0-1.4-0.6-4.3-3.7-4.3c-2.4,0-4.2,2-4.2,5.1
		c0,2.8,1.7,4.7,4.4,4.7c1.7,0,2.6-0.4,3-0.6l-0.2-0.7c-0.5,0.3-1.2,0.5-2.6,0.5c-2,0-3.6-1.2-3.6-4.2H156.2z M133,13.2h0.9V7.4
		c0-0.3,0.1-0.6,0.1-0.9c0.4-1.1,1.4-2.1,2.6-2.1c1.5,0,2.3,1.2,2.3,2.9v5.9h0.9V7.2c0-0.3,0.1-0.6,0.2-0.9c0.4-1,1.3-1.9,2.5-1.9
		c1.6,0,2.5,1.3,2.5,3.4v5.5h0.9V7.7c0-3.6-2.2-4.1-3.1-4.1c-1,0-1.6,0.3-2.2,0.8c-0.4,0.3-0.7,0.7-1,1.3h0
		c-0.4-1.2-1.4-2.1-2.7-2.1c-1.6,0-2.5,0.8-3.1,1.9h0l-0.1-1.7H133c0.1,0.7,0.1,1.4,0.1,2.3V13.2z M123.4,7.8l1.6-4.5
		c0.3-0.8,0.5-1.5,0.7-2.3h0.1c0.2,0.7,0.4,1.4,0.7,2.3l1.6,4.4H123.4z M128.4,8.6l1.7,4.6h1L126.2,0h-0.9l-4.8,13.2h1l1.6-4.6
		H128.4z"/>
	<path fill="#949436" d="M204.9,76.8h2.9v-5.5c0-0.3,0-0.5,0.1-0.7c0.2-0.5,0.7-1.1,1.5-1.1c1.1,0,1.5,0.8,1.5,2.1v5.3h2.9v-5.6
		c0-2.8-1.5-4.1-3.4-4.1c-1.6,0-2.5,0.9-2.9,1.5h-0.1l-0.1-1.3h-2.6c0,0.8,0.1,1.8,0.1,3V76.8z M198.9,69.2c1.3,0,1.9,1.4,1.9,2.8
		c0,1.7-0.7,2.8-1.9,2.8c-1.3,0-1.9-1.2-1.9-2.8C197,70.6,197.5,69.2,198.9,69.2 M199,67.1c-3,0-5.1,2-5.1,5c0,3.1,2.1,4.9,4.9,4.9
		c2.5,0,5-1.6,5-5.1C203.8,69.1,201.9,67.1,199,67.1 M191.2,63.2c-1,0-1.6,0.6-1.6,1.5c0,0.8,0.6,1.5,1.5,1.5c1,0,1.6-0.7,1.6-1.5
		C192.8,63.8,192.2,63.2,191.2,63.2 M192.7,67.3h-2.9v9.5h2.9V67.3z M182.9,65.5v1.8h-1.3v2.2h1.3v3.9c0,1.3,0.3,2.2,0.8,2.8
		c0.5,0.5,1.3,0.8,2.2,0.8c0.8,0,1.5-0.1,1.9-0.3l0-2.2c-0.3,0.1-0.5,0.1-0.9,0.1c-0.9,0-1.2-0.5-1.2-1.7v-3.4h2.1v-2.2h-2.1v-2.6
		L182.9,65.5z M177.9,73.3c0,0.2,0,0.3-0.1,0.5c-0.2,0.6-0.8,1.1-1.5,1.1c-0.7,0-1.2-0.4-1.2-1.1c0-1.1,1.2-1.5,2.8-1.5V73.3z
		 M180.7,71.2c0-2.2-1-4.1-4.2-4.1c-1.7,0-3,0.5-3.7,0.8l0.5,1.9c0.6-0.4,1.6-0.7,2.6-0.7c1.5,0,1.7,0.7,1.7,1.2v0.1
		c-3.4,0-5.6,1.2-5.6,3.6c0,1.5,1.1,2.9,3.1,2.9c1.1,0,2.1-0.4,2.7-1.2h0.1l0.2,1h2.7c-0.1-0.5-0.1-1.4-0.1-2.3V71.2z M167.7,72.6
		c0,0.3,0,0.5-0.1,0.7c-0.2,0.8-0.9,1.4-1.7,1.4c-1.2,0-2-1-2-2.6c0-1.5,0.7-2.7,2-2.7c0.9,0,1.6,0.7,1.7,1.5c0,0.2,0,0.4,0,0.5
		V72.6z M167.7,63v5.1h0c-0.4-0.7-1.3-1.1-2.5-1.1c-2.3,0-4.3,1.8-4.2,5c0,2.9,1.8,4.9,4.1,4.9c1.2,0,2.4-0.5,3-1.6h0l0.1,1.4h2.6
		c0-0.6-0.1-1.8-0.1-2.8V63H167.7z M150.8,76.8h2.9v-5.5c0-0.3,0-0.5,0.1-0.7c0.2-0.5,0.7-1.1,1.5-1.1c1.1,0,1.5,0.8,1.5,2.1v5.3
		h2.9v-5.6c0-2.8-1.5-4.1-3.4-4.1c-1.6,0-2.5,0.9-2.9,1.5h-0.1l-0.1-1.3h-2.6c0,0.8,0.1,1.8,0.1,3V76.8z M149.2,67.3h-3v5.6
		c0,0.2,0,0.5-0.1,0.6c-0.2,0.5-0.7,1-1.5,1c-1,0-1.5-0.8-1.5-2.2v-5.1h-3v5.6c0,2.9,1.4,4.1,3.3,4.1c1.7,0,2.6-1,3-1.5h0.1l0.1,1.3
		h2.6c0-0.8-0.1-1.8-0.1-3V67.3z M134,69.2c1.3,0,1.9,1.4,1.9,2.8c0,1.7-0.7,2.8-1.9,2.8c-1.3,0-1.9-1.2-1.9-2.8
		C132.1,70.6,132.6,69.2,134,69.2 M134.1,67.1c-3,0-5.1,2-5.1,5c0,3.1,2.1,4.9,4.9,4.9c2.5,0,5-1.6,5-5.1
		C139,69.1,137,67.1,134.1,67.1 M120.5,76.8h3v-5.9h4.7v-2.4h-4.7v-3.1h5V63h-8V76.8z"/>
	<path fill="#949436" d="M73,77h39.3v-65c-0.8,0.4-1.8,0.7-2.9,0.7c-2.4,0-4.8-1.6-4.8-4.2c0-1.8,1.2-3.3,1.7-5.1
		c0.2-0.7-0.4-1.1-1.8-1.1c-8.4,0-9,16.4-10.4,22.7h9.8l-1.9,9.4h-9.7c-2,10.1-2.7,13.1-6,22.6C84.1,63.4,80.1,74.2,73,77"/>
	<path fill="#266093" d="M3.3,28.3L13.4,0.1H0v30.5h0.2C1.9,30.6,2.7,29.6,3.3,28.3 M11.3,9.3h-0.1l-4,11.3h7.9L11.3,9.3z
		 M26.3,30.6h4.5V1.3h-3.6V0.1H14.7L26.3,30.6z M41.4,1.3h-3.7v15.1c0.5,0.1,1.3,0.2,1.9,0.2c5.4,0,7.4-2.7,7.4-7.8
		C47.1,3.1,45.9,1.3,41.4,1.3 M101.7,0.1H76.9v0H63.4L75,30.6l1.1,0l0,0h2v1.2h-2.2l0,0H63.9v-1.2l3.6,0l-3.1-8.9h-8.9L53.4,28
		c-0.1,0.4-0.2,0.6-0.2,1.1c0,1.3,1.2,1.6,2.1,1.6h1.3v1.2h-8.1v-1.2h0.4c1.7-0.1,2.5-1,3.1-2.3L62.2,0.1H45
		c6.6,0.4,9.6,3.3,9.6,8.4c0,5.2-5.1,8.8-11.9,8.8c-1.9,0-3.5,0-4.9-0.2v13.4h4.4v1.2h-27v-1.2l3.6,0l-3.1-8.9H6.8L4.7,28
		c-0.1,0.4-0.2,0.6-0.2,1.1c0,1.3,1.2,1.6,2.1,1.6h1.3v1.2H0V77h61.3h1.6h4c3.7,0,8.7-12.9,9.1-15.2l6.8-37
		c2.4-10.1,7.5-19.8,16.8-24C100.2,0.6,101,0.3,101.7,0.1 M56,20.6h7.9L60,9.3h-0.1L56,20.6z"/>
</g>
</svg>
