<?xml version="1.0" encoding="utf-8"?>
<!-- Generator: Adobe Illustrator 18.1.1, SVG Export Plug-In . SVG Version: 6.00 Build 0)  -->
<svg version="1.1" id="Layer_1" xmlns="http://www.w3.org/2000/svg" xmlns:xlink="http://www.w3.org/1999/xlink" x="0px" y="0px"
	 viewBox="0 0 278.2 207.2" enable-background="new 0 0 278.2 207.2" xml:space="preserve">
<g>
	<path fill="#D9531E" d="M26.2,23.4V0.8h-2.8V0H11.6l8.9,23.4H26.2z M78.8,5.4V0h-7.5C76.1,0.3,78.5,2.1,78.8,5.4z M68.8,0.9H66
		v11.5c0.4,0.1,1,0.2,1.4,0.2c4.1,0,5.7-2,5.7-6C73.2,2.8,72.5,0.9,68.8,0.9z M69.7,13.4c-1.4,0-2.7,0-3.7-0.1v10.1h3.4v0.9H58v-0.9
		h2.8V0.9H58V0h-3v8.2h-1.1C53.3,4.7,50.4,0,46.5,0C43.1,0,41,3.3,41,12c0,8.3,1.5,11.9,5.4,11.9c4.4,0,6.8-4.4,7.2-7.1l0.2-1.2h1.1
		v8.7h-0.8c-0.1-0.8-0.5-1.7-1.3-1.7c-1.1,0-2.6,1.9-6.7,1.9c-6.8,0-10.8-6-10.8-12.1c0-5,2.9-10.6,7.9-12.4h-8.9v0.8h-2.8v22.5h2.8
		v0.9H12v-0.9h2.7l-2.4-6.8l-6.8,0L4,21.1c-0.1,0.3-0.2,0.6-0.2,1c0,1.1,1,1.3,1.6,1.3h1v0.9H0.2v54.4h78.6V7.2
		C78.3,10.9,74.5,13.4,69.7,13.4z M2.9,21.3L10.6,0H0.2v23.4h0.4C1.9,23.3,2.5,22.4,2.9,21.3z M9,7L9,7l-3.1,8.6H12L9,7z"/>
	<path fill="#005695" d="M4.3,92.6H0v-0.8h9.5v0.8H5.2V105H4.3V92.6z"/>
	<path fill="#005695" d="M11,91.1H12v6.2h0c0.3-0.5,0.7-1,1.3-1.4c0.5-0.3,1.2-0.5,1.9-0.5c0.9,0,3.2,0.4,3.2,3.9v5.7h-0.9v-5.6
		c0-1.7-0.7-3.2-2.6-3.2c-1.3,0-2.4,1-2.8,2.1C12,98.6,12,98.8,12,99.2v5.7H11V91.1z"/>
	<path fill="#005695" d="M21.6,100.2c0,3,1.6,4.2,3.6,4.2c1.4,0,2.1-0.3,2.6-0.5l0.2,0.7c-0.4,0.2-1.3,0.6-3,0.6
		c-2.7,0-4.4-2-4.4-4.7c0-3.1,1.8-5.1,4.2-5.1c3.1,0,3.7,2.9,3.7,4.2c0,0.3,0,0.4,0,0.6H21.6z M27.5,99.4c0-1.3-0.5-3.3-2.8-3.3
		c-2.1,0-3,1.9-3.1,3.3H27.5z"/>
	<path fill="#005695" d="M37,100.4l-1.6,4.6h-1l4.8-13.2H40l4.7,13.2h-1l-1.7-4.6H37z M41.9,99.6l-1.6-4.4c-0.3-0.9-0.5-1.6-0.7-2.3
		h0c-0.2,0.8-0.4,1.4-0.7,2.3l-1.6,4.4H41.9z"/>
	<path fill="#005695" d="M46.6,97.8c0-0.9,0-1.5-0.1-2.2h0.9l0.1,1.7h0c0.6-1.1,1.5-1.9,3-1.9c1.3,0,2.3,0.9,2.7,2.1h0
		c0.3-0.6,0.6-1,1-1.3c0.6-0.5,1.3-0.8,2.2-0.8c0.9,0,3,0.5,3,4.1v5.5h-0.9v-5.4c0-2.1-0.8-3.4-2.4-3.4c-1.2,0-2.1,0.9-2.5,1.9
		c-0.1,0.3-0.2,0.6-0.2,0.9v6h-0.9v-5.9c0-1.7-0.8-2.9-2.3-2.9c-1.3,0-2.2,1-2.6,2.1c-0.1,0.3-0.2,0.6-0.2,0.9v5.8h-0.9V97.8z"/>
	<path fill="#005695" d="M62.7,100.2c0,3,1.6,4.2,3.6,4.2c1.4,0,2.1-0.3,2.6-0.5l0.2,0.7c-0.4,0.2-1.3,0.6-3,0.6
		c-2.7,0-4.4-2-4.4-4.7c0-3.1,1.8-5.1,4.2-5.1c3.1,0,3.7,2.9,3.7,4.2c0,0.3,0,0.4,0,0.6H62.7z M68.6,99.4c0-1.3-0.5-3.3-2.8-3.3
		c-2.1,0-3,1.9-3.1,3.3H68.6z"/>
	<path fill="#005695" d="M71.8,98.4c0-0.9,0-1.9-0.1-2.8h0.9l0,1.9h0c0.4-1.2,1.4-2.1,2.7-2.1c0.1,0,0.3,0,0.4,0v0.9
		c-0.1,0-0.3,0-0.5,0c-1.3,0-2.2,1.1-2.5,2.6c0,0.3-0.1,0.6-0.1,0.9v5.2h-0.9V98.4z"/>
	<path fill="#005695" d="M78.7,92.9c0,0.4-0.3,0.8-0.8,0.8c-0.4,0-0.7-0.4-0.7-0.8c0-0.4,0.3-0.8,0.8-0.8
		C78.4,92.1,78.7,92.5,78.7,92.9z M77.5,105v-9.4h0.9v9.4H77.5z"/>
	<path fill="#005695" d="M87.7,104.6c-0.4,0.2-1.4,0.6-2.7,0.6c-2.7,0-4.5-2-4.5-4.8c0-3,2-5,4.8-5c1.2,0,2.1,0.3,2.5,0.6l-0.3,0.8
		c-0.5-0.3-1.2-0.5-2.2-0.5c-2.5,0-3.8,1.9-3.8,4.1c0,2.4,1.5,4,3.7,4c1.1,0,1.8-0.3,2.3-0.5L87.7,104.6z"/>
	<path fill="#005695" d="M95.7,102.7c0,0.7,0,1.5,0.1,2.2H95l-0.1-1.3h-0.1c-0.4,0.7-1.5,1.6-3,1.6c-1.9,0-2.8-1.3-2.8-2.6
		c0-2.2,1.9-3.5,5.7-3.4v-0.2c0-0.9-0.2-2.8-2.4-2.8c-0.8,0-1.7,0.2-2.3,0.7l-0.3-0.7c0.8-0.6,1.9-0.8,2.7-0.8c2.7,0,3.2,2,3.2,3.7
		V102.7z M94.8,99.9c-2.1-0.1-4.7,0.3-4.7,2.5c0,1.3,0.9,2,1.9,2c1.6,0,2.4-1,2.8-1.9c0.1-0.2,0.1-0.4,0.1-0.6V99.9z"/>
	<path fill="#005695" d="M98.5,97.8c0-0.9,0-1.5-0.1-2.2h0.9l0.1,1.7h0c0.5-1.1,1.7-1.9,3.2-1.9c0.9,0,3.3,0.4,3.3,4v5.6H105v-5.6
		c0-1.7-0.7-3.2-2.6-3.2c-1.3,0-2.4,0.9-2.8,2.1c-0.1,0.2-0.1,0.5-0.1,0.8v5.8h-0.9V97.8z"/>
	<path fill="#005695" d="M113.5,91.9c0.8-0.2,1.7-0.3,2.8-0.3c1.6,0,2.8,0.4,3.5,1.1c0.6,0.6,1,1.5,1,2.6c0,1.1-0.3,2-0.9,2.6
		c-0.8,1-2.3,1.5-3.9,1.5c-0.6,0-1.1,0-1.6-0.2v5.6h-0.9V91.9z M114.4,98.5c0.5,0.1,1,0.2,1.7,0.2c2.3,0,3.8-1.2,3.8-3.2
		c0-2.1-1.5-3-3.6-3c-0.9,0-1.5,0.1-1.9,0.2V98.5z"/>
	<path fill="#005695" d="M122.9,91.1h0.9V105h-0.9V91.1z"/>
	<path fill="#005695" d="M132.6,102.7c0,0.7,0,1.5,0.1,2.2h-0.8l-0.1-1.3h-0.1c-0.4,0.7-1.5,1.6-3,1.6c-1.9,0-2.8-1.3-2.8-2.6
		c0-2.2,1.9-3.5,5.7-3.4v-0.2c0-0.9-0.2-2.8-2.4-2.8c-0.8,0-1.7,0.2-2.3,0.7l-0.3-0.7c0.8-0.6,1.9-0.8,2.7-0.8c2.7,0,3.2,2,3.2,3.7
		V102.7z M131.7,99.9c-2.1-0.1-4.7,0.3-4.7,2.5c0,1.3,0.9,2,1.9,2c1.6,0,2.4-1,2.8-1.9c0.1-0.2,0.1-0.4,0.1-0.6V99.9z"/>
	<path fill="#005695" d="M135,97.8c0-0.9,0-1.5-0.1-2.2h0.9l0.1,1.7h0c0.5-1.1,1.7-1.9,3.2-1.9c0.9,0,3.3,0.4,3.3,4v5.6h-0.9v-5.6
		c0-1.7-0.7-3.2-2.6-3.2c-1.3,0-2.4,0.9-2.8,2.1c-0.1,0.2-0.1,0.5-0.1,0.8v5.8H135V97.8z"/>
	<path fill="#005695" d="M145.3,97.8c0-0.9,0-1.5-0.1-2.2h0.9l0.1,1.7h0c0.5-1.1,1.7-1.9,3.2-1.9c0.9,0,3.3,0.4,3.3,4v5.6h-0.9v-5.6
		c0-1.7-0.7-3.2-2.6-3.2c-1.3,0-2.4,0.9-2.8,2.1c-0.1,0.2-0.1,0.5-0.1,0.8v5.8h-0.9V97.8z"/>
	<path fill="#005695" d="M156.3,92.9c0,0.4-0.3,0.8-0.8,0.8c-0.4,0-0.7-0.4-0.7-0.8c0-0.4,0.3-0.8,0.8-0.8
		C156,92.1,156.3,92.5,156.3,92.9z M155.1,105v-9.4h0.9v9.4H155.1z"/>
	<path fill="#005695" d="M158.9,97.8c0-0.9,0-1.5-0.1-2.2h0.9l0.1,1.7h0c0.5-1.1,1.7-1.9,3.2-1.9c0.9,0,3.3,0.4,3.3,4v5.6h-0.9v-5.6
		c0-1.7-0.7-3.2-2.6-3.2c-1.3,0-2.4,0.9-2.8,2.1c-0.1,0.2-0.1,0.5-0.1,0.8v5.8h-0.9V97.8z"/>
	<path fill="#005695" d="M176.8,103.6c0,2.4-0.5,3.6-1.3,4.3c-0.9,0.8-2.1,1.1-3.2,1.1c-1.1,0-2.3-0.3-3-0.8l0.3-0.7
		c0.6,0.4,1.6,0.8,2.8,0.8c2,0,3.4-1,3.4-3.8v-1.3h0c-0.5,1-1.6,1.8-3.3,1.8c-2.4,0-4-2.1-4-4.6c0-3.3,2.1-5,4.2-5
		c1.9,0,2.8,1,3.2,1.8h0l0-1.6h0.9c0,0.7-0.1,1.4-0.1,2.4V103.6z M175.8,99.2c0-0.3,0-0.6-0.1-0.9c-0.4-1.1-1.4-2.2-2.9-2.2
		c-2,0-3.4,1.6-3.4,4.1c0,2.1,1.1,3.9,3.3,3.9c1.3,0,2.4-0.8,2.9-2.1c0.1-0.3,0.2-0.7,0.2-1V99.2z"/>
	<g>
		<path fill="#005695" d="M186,100.4l-1.6,4.6h-1l4.8-13.2h0.9l4.7,13.2h-1l-1.7-4.6H186z M190.9,99.6l-1.6-4.4
			c-0.3-0.9-0.5-1.6-0.7-2.3h0c-0.2,0.8-0.4,1.4-0.7,2.3l-1.6,4.4H190.9z"/>
		<path fill="#005695" d="M195.6,103.7c0.5,0.3,1.3,0.6,2.1,0.6c1.5,0,2.2-0.8,2.2-1.8c0-1-0.6-1.6-2-2.1c-1.5-0.6-2.4-1.4-2.4-2.6
			c0-1.3,1.1-2.5,2.9-2.5c0.9,0,1.6,0.3,2.1,0.6l-0.4,0.8c-0.3-0.2-0.9-0.6-1.9-0.6c-1.2,0-1.8,0.8-1.8,1.6c0,1,0.7,1.4,1.9,1.9
			c1.5,0.6,2.4,1.3,2.4,2.8c0,1.6-1.2,2.7-3.2,2.7c-0.9,0-1.8-0.3-2.4-0.7L195.6,103.7z"/>
		<path fill="#005695" d="M202.6,103.7c0.5,0.3,1.3,0.6,2.1,0.6c1.5,0,2.2-0.8,2.2-1.8c0-1-0.6-1.6-2-2.1c-1.5-0.6-2.4-1.4-2.4-2.6
			c0-1.3,1.1-2.5,2.9-2.5c0.9,0,1.6,0.3,2.1,0.6l-0.4,0.8c-0.3-0.2-0.9-0.6-1.9-0.6c-1.2,0-1.8,0.8-1.8,1.6c0,1,0.7,1.4,1.9,1.9
			c1.5,0.6,2.4,1.3,2.4,2.8c0,1.6-1.2,2.7-3.2,2.7c-0.9,0-1.8-0.3-2.4-0.7L202.6,103.7z"/>
		<path fill="#005695" d="M218.3,100.2c0,3.5-2.4,5-4.5,5c-2.4,0-4.3-1.9-4.3-4.8c0-3.2,2.1-5,4.4-5
			C216.5,95.4,218.3,97.3,218.3,100.2z M210.4,100.3c0,2.3,1.5,4.1,3.4,4.1c2,0,3.5-1.8,3.5-4.2c0-1.7-1-4.1-3.4-4.1
			C211.5,96.1,210.4,98.3,210.4,100.3z"/>
		<path fill="#005695" d="M227.2,104.6c-0.4,0.2-1.4,0.6-2.7,0.6c-2.7,0-4.5-2-4.5-4.8c0-3,2-5,4.8-5c1.2,0,2.1,0.3,2.5,0.6
			l-0.3,0.8c-0.5-0.3-1.2-0.5-2.2-0.5c-2.5,0-3.8,1.9-3.8,4.1c0,2.4,1.5,4,3.7,4c1.1,0,1.8-0.3,2.3-0.5L227.2,104.6z"/>
		<path fill="#005695" d="M230.4,92.9c0,0.4-0.3,0.8-0.8,0.8c-0.4,0-0.7-0.4-0.7-0.8c0-0.4,0.3-0.8,0.8-0.8
			C230.1,92.1,230.4,92.5,230.4,92.9z M229.2,105v-9.4h0.9v9.4H229.2z"/>
		<path fill="#005695" d="M238.8,102.7c0,0.7,0,1.5,0.1,2.2h-0.8l-0.1-1.3h-0.1c-0.4,0.7-1.5,1.6-3,1.6c-1.9,0-2.8-1.3-2.8-2.6
			c0-2.2,1.9-3.5,5.7-3.4v-0.2c0-0.9-0.2-2.8-2.4-2.8c-0.8,0-1.7,0.2-2.3,0.7l-0.3-0.7c0.8-0.6,1.9-0.8,2.7-0.8c2.7,0,3.2,2,3.2,3.7
			V102.7z M237.9,99.9c-2.1-0.1-4.7,0.3-4.7,2.5c0,1.3,0.9,2,1.9,2c1.6,0,2.4-1,2.8-1.9c0.1-0.2,0.1-0.4,0.1-0.6V99.9z"/>
		<path fill="#005695" d="M242.8,93.5v2.1h2.7v0.7h-2.7v6.1c0,1.2,0.4,2,1.4,2c0.5,0,0.8-0.1,1.1-0.2l0.1,0.7
			c-0.3,0.1-0.7,0.2-1.3,0.2c-0.7,0-1.2-0.2-1.6-0.7c-0.4-0.5-0.6-1.3-0.6-2.2v-5.9h-1.6v-0.7h1.6v-1.7L242.8,93.5z"/>
		<path fill="#005695" d="M248.6,92.9c0,0.4-0.3,0.8-0.8,0.8c-0.4,0-0.7-0.4-0.7-0.8c0-0.4,0.3-0.8,0.8-0.8
			C248.3,92.1,248.6,92.5,248.6,92.9z M247.4,105v-9.4h0.9v9.4H247.4z"/>
		<path fill="#005695" d="M258.9,100.2c0,3.5-2.4,5-4.5,5c-2.4,0-4.3-1.9-4.3-4.8c0-3.2,2.1-5,4.4-5
			C257.1,95.4,258.9,97.3,258.9,100.2z M251,100.3c0,2.3,1.5,4.1,3.4,4.1c2,0,3.5-1.8,3.5-4.2c0-1.7-1-4.1-3.4-4.1
			C252.1,96.1,251,98.3,251,100.3z"/>
		<path fill="#005695" d="M261.2,97.8c0-0.9,0-1.5-0.1-2.2h0.9l0.1,1.7h0c0.5-1.1,1.7-1.9,3.2-1.9c0.9,0,3.3,0.4,3.3,4v5.6h-0.9
			v-5.5c0-1.7-0.7-3.2-2.6-3.2c-1.3,0-2.4,0.9-2.8,2.2c-0.1,0.2-0.1,0.5-0.1,0.8v5.8h-0.9V97.8z"/>
		<path fill="#005695" d="M272.4,91.4c-0.4,1.5-1.2,3.7-1.5,4.2l-0.6,0.1c0.3-0.8,0.8-2.9,1-4.1L272.4,91.4z"/>
		<path fill="#005695" d="M273,103.7c0.5,0.3,1.3,0.6,2.1,0.6c1.5,0,2.2-0.8,2.2-1.8c0-1-0.6-1.6-2-2.1c-1.5-0.6-2.4-1.4-2.4-2.6
			c0-1.3,1.1-2.5,2.9-2.5c0.9,0,1.6,0.3,2.1,0.6l-0.4,0.8c-0.3-0.2-0.9-0.6-1.9-0.6c-1.2,0-1.8,0.8-1.8,1.6c0,1,0.7,1.4,1.9,1.9
			c1.5,0.6,2.4,1.3,2.4,2.8c0,1.6-1.3,2.7-3.2,2.7c-0.9,0-1.8-0.3-2.4-0.7L273,103.7z"/>
	</g>
	<path fill="#005695" d="M0.2,113.7c0.8-0.2,1.7-0.3,2.8-0.3c1.6,0,2.8,0.4,3.5,1.1c0.6,0.6,1,1.5,1,2.6c0,1.1-0.3,2-0.9,2.6
		c-0.8,1-2.3,1.5-3.9,1.5c-0.6,0-1.1,0-1.6-0.2v5.6H0.2V113.7z M1.1,120.3c0.5,0.1,1,0.2,1.7,0.2c2.3,0,3.8-1.2,3.8-3.2
		c0-2.1-1.5-3-3.6-3c-0.9,0-1.5,0.1-1.9,0.2V120.3z"/>
	<path fill="#005695" d="M9.6,120.2c0-0.9,0-1.9-0.1-2.8h0.9l0,1.9h0c0.4-1.2,1.4-2.1,2.7-2.1c0.1,0,0.3,0,0.4,0v0.9
		c-0.1,0-0.3,0-0.5,0c-1.3,0-2.2,1.1-2.5,2.6c0,0.3-0.1,0.6-0.1,0.9v5.2H9.6V120.2z"/>
	<path fill="#005695" d="M23,122c0,3.5-2.4,5-4.5,5c-2.4,0-4.3-1.9-4.3-4.8c0-3.2,2.1-5,4.4-5C21.2,117.2,23,119.1,23,122z
		 M15.1,122.1c0,2.3,1.5,4.1,3.4,4.1c2,0,3.5-1.8,3.5-4.2c0-1.7-1-4.1-3.4-4.1C16.2,117.9,15.1,120.1,15.1,122.1z"/>
	<path fill="#005695" d="M25.3,126.8v-8.6H24v-0.7h1.3v-0.5c0-1.4,0.3-2.6,1-3.4c0.6-0.6,1.3-0.8,2.1-0.8c0.6,0,1.1,0.2,1.4,0.3
		l-0.3,0.7c-0.3-0.1-0.6-0.3-1.2-0.3c-1.7,0-2.1,1.6-2.1,3.4v0.5h2.5v0.7h-2.5v8.6H25.3z"/>
	<path fill="#005695" d="M30.3,122c0,3,1.6,4.2,3.6,4.2c1.4,0,2.1-0.3,2.6-0.5l0.2,0.7c-0.4,0.2-1.3,0.6-3,0.6c-2.7,0-4.4-2-4.4-4.7
		c0-3.1,1.8-5.1,4.2-5.1c3.1,0,3.7,2.9,3.7,4.2c0,0.3,0,0.4,0,0.6H30.3z M36.3,121.2c0-1.3-0.5-3.3-2.8-3.3c-2.1,0-3,1.9-3.1,3.3
		H36.3z"/>
	<path fill="#005695" d="M39.1,125.5c0.5,0.3,1.3,0.6,2.1,0.6c1.5,0,2.2-0.8,2.2-1.8c0-1-0.6-1.6-2-2.1c-1.5-0.6-2.4-1.4-2.4-2.6
		c0-1.3,1.1-2.5,2.9-2.5c0.9,0,1.6,0.3,2.1,0.6l-0.4,0.8c-0.3-0.2-0.9-0.6-1.9-0.6c-1.2,0-1.8,0.8-1.8,1.6c0,1,0.7,1.4,1.9,1.9
		c1.5,0.6,2.4,1.3,2.4,2.8c0,1.6-1.3,2.7-3.2,2.7c-0.9,0-1.8-0.3-2.4-0.7L39.1,125.5z"/>
	<path fill="#005695" d="M46.1,125.5c0.5,0.3,1.3,0.6,2.1,0.6c1.5,0,2.2-0.8,2.2-1.8c0-1-0.6-1.6-2-2.1c-1.5-0.6-2.4-1.4-2.4-2.6
		c0-1.3,1.1-2.5,2.9-2.5c0.9,0,1.6,0.3,2.1,0.6l-0.4,0.8c-0.3-0.2-0.9-0.6-1.9-0.6c-1.2,0-1.8,0.8-1.8,1.6c0,1,0.7,1.4,1.9,1.9
		c1.5,0.6,2.4,1.3,2.4,2.8c0,1.6-1.3,2.7-3.2,2.7c-0.9,0-1.8-0.3-2.4-0.7L46.1,125.5z"/>
	<path fill="#005695" d="M54.7,114.7c0,0.4-0.3,0.8-0.8,0.8c-0.4,0-0.7-0.4-0.7-0.8c0-0.4,0.3-0.8,0.8-0.8
		C54.4,113.9,54.7,114.2,54.7,114.7z M53.5,126.8v-9.4h0.9v9.4H53.5z"/>
	<path fill="#005695" d="M65.4,122c0,3.5-2.4,5-4.5,5c-2.4,0-4.3-1.9-4.3-4.8c0-3.2,2.1-5,4.4-5C63.7,117.2,65.4,119.1,65.4,122z
		 M57.6,122.1c0,2.3,1.5,4.1,3.4,4.1c2,0,3.5-1.8,3.5-4.2c0-1.7-1-4.1-3.4-4.1C58.7,117.9,57.6,120.1,57.6,122.1z"/>
	<path fill="#005695" d="M67.7,119.6c0-0.9,0-1.5-0.1-2.2h0.9l0.1,1.7h0c0.5-1.1,1.7-1.9,3.2-1.9c0.9,0,3.3,0.5,3.3,4v5.6h-0.9v-5.5
		c0-1.7-0.7-3.2-2.6-3.2c-1.3,0-2.4,0.9-2.8,2.2c-0.1,0.2-0.1,0.5-0.1,0.8v5.8h-0.9V119.6z"/>
	<path fill="#005695" d="M83.8,124.5c0,0.7,0,1.5,0.1,2.2h-0.8l-0.1-1.3h-0.1c-0.4,0.7-1.5,1.6-3,1.6c-1.9,0-2.8-1.3-2.8-2.6
		c0-2.2,1.9-3.5,5.7-3.4v-0.2c0-0.9-0.2-2.8-2.4-2.8c-0.8,0-1.7,0.2-2.3,0.7l-0.3-0.7c0.8-0.6,1.9-0.8,2.7-0.8c2.7,0,3.2,2,3.2,3.7
		V124.5z M82.8,121.7c-2.1-0.1-4.7,0.3-4.7,2.5c0,1.3,0.9,2,1.9,2c1.6,0,2.4-1,2.8-1.9c0.1-0.2,0.1-0.4,0.1-0.6V121.7z"/>
	<path fill="#005695" d="M86.6,112.9h0.9v13.9h-0.9V112.9z"/>
	<path fill="#005695" d="M96.1,113.6v13.2h-0.9v-13.2H96.1z"/>
	<path fill="#005695" d="M99.1,119.6c0-0.9,0-1.5-0.1-2.2h0.9l0.1,1.7h0c0.5-1.1,1.7-1.9,3.2-1.9c0.9,0,3.3,0.5,3.3,4v5.6h-0.9v-5.5
		c0-1.7-0.7-3.2-2.6-3.2c-1.3,0-2.4,0.9-2.8,2.2c-0.1,0.2-0.1,0.5-0.1,0.8v5.8h-0.9V119.6z"/>
	<path fill="#005695" d="M108.9,125.5c0.5,0.3,1.3,0.6,2.1,0.6c1.5,0,2.2-0.8,2.2-1.8c0-1-0.6-1.6-2-2.1c-1.5-0.6-2.4-1.4-2.4-2.6
		c0-1.3,1.1-2.5,2.9-2.5c0.9,0,1.6,0.3,2.1,0.6l-0.4,0.8c-0.3-0.2-0.9-0.6-1.9-0.6c-1.2,0-1.8,0.8-1.8,1.6c0,1,0.7,1.4,1.9,1.9
		c1.5,0.6,2.4,1.3,2.4,2.8c0,1.6-1.3,2.7-3.2,2.7c-0.9,0-1.8-0.3-2.4-0.7L108.9,125.5z"/>
	<path fill="#005695" d="M118,115.3v2.1h2.7v0.7H118v6.1c0,1.2,0.4,2,1.4,2c0.5,0,0.8-0.1,1.1-0.2l0.1,0.7c-0.3,0.1-0.7,0.2-1.3,0.2
		c-0.7,0-1.3-0.2-1.6-0.7c-0.4-0.5-0.6-1.3-0.6-2.2v-5.9h-1.6v-0.7h1.6v-1.7L118,115.3z"/>
	<path fill="#005695" d="M123.7,114.7c0,0.4-0.3,0.8-0.8,0.8c-0.4,0-0.7-0.4-0.7-0.8c0-0.4,0.3-0.8,0.8-0.8
		C123.5,113.9,123.7,114.2,123.7,114.7z M122.5,126.8v-9.4h0.9v9.4H122.5z"/>
	<path fill="#005695" d="M127.8,115.3v2.1h2.7v0.7h-2.7v6.1c0,1.2,0.4,2,1.4,2c0.5,0,0.8-0.1,1.1-0.2l0.1,0.7
		c-0.3,0.1-0.7,0.2-1.3,0.2c-0.7,0-1.3-0.2-1.6-0.7c-0.4-0.5-0.6-1.3-0.6-2.2v-5.9h-1.6v-0.7h1.6v-1.7L127.8,115.3z"/>
	<path fill="#005695" d="M139.6,124.5c0,0.8,0,1.6,0.1,2.3h-0.9l-0.1-1.7h0c-0.5,0.9-1.5,1.9-3.2,1.9c-1.2,0-3.2-0.6-3.2-4.1v-5.5
		h0.9v5.3c0,2,0.6,3.5,2.5,3.5c1.4,0,2.4-1,2.8-1.9c0.1-0.3,0.2-0.7,0.2-1v-5.8h0.9V124.5z"/>
	<path fill="#005695" d="M144,115.3v2.1h2.7v0.7H144v6.1c0,1.2,0.4,2,1.4,2c0.5,0,0.8-0.1,1.1-0.2l0.1,0.7c-0.3,0.1-0.7,0.2-1.3,0.2
		c-0.7,0-1.3-0.2-1.6-0.7c-0.4-0.5-0.6-1.3-0.6-2.2v-5.9h-1.6v-0.7h1.6v-1.7L144,115.3z"/>
	<path fill="#005695" d="M148.4,122c0,3,1.6,4.2,3.6,4.2c1.4,0,2.1-0.3,2.6-0.5l0.2,0.7c-0.4,0.2-1.3,0.6-3,0.6
		c-2.7,0-4.4-2-4.4-4.7c0-3.1,1.8-5.1,4.2-5.1c3.1,0,3.7,2.9,3.7,4.2c0,0.3,0,0.4,0,0.6H148.4z M154.4,121.2c0-1.3-0.5-3.3-2.8-3.3
		c-2.1,0-3,1.9-3.1,3.3H154.4z"/>
	<path fill="#005695" d="M4.2,145.2l-0.9,3.4H0.2l4-13.2h3.9l4.1,13.2H9l-1-3.4H4.2z M7.5,142.9l-0.8-2.8c-0.2-0.8-0.5-1.8-0.7-2.5
		h0c-0.2,0.8-0.4,1.8-0.6,2.5l-0.8,2.8H7.5z"/>
	<path fill="#005695" d="M13.7,142c0-1.2,0-2.2-0.1-3h2.5l0.1,1.3h0.1c0.4-0.6,1.3-1.5,2.9-1.5c1.2,0,2.2,0.6,2.6,1.6h0
		c0.4-0.5,0.8-0.9,1.2-1.2c0.5-0.3,1.1-0.5,1.8-0.5c1.8,0,3.2,1.3,3.2,4.1v5.6h-2.9v-5.2c0-1.4-0.5-2.2-1.4-2.2
		c-0.7,0-1.2,0.5-1.4,1c-0.1,0.2-0.1,0.5-0.1,0.8v5.6h-2.9v-5.4c0-1.2-0.4-2-1.4-2c-0.8,0-1.2,0.6-1.4,1.1c-0.1,0.2-0.1,0.5-0.1,0.7
		v5.6h-2.9V142z"/>
	<path fill="#005695" d="M32.8,144.7c0.1,1.2,1.3,1.8,2.7,1.8c1,0,1.8-0.1,2.6-0.4l0.4,2c-1,0.4-2.2,0.6-3.5,0.6
		c-3.2,0-5.1-1.9-5.1-4.9c0-2.4,1.5-5.1,4.8-5.1c3.1,0,4.3,2.4,4.3,4.8c0,0.5-0.1,1-0.1,1.2H32.8z M36.3,142.7
		c0-0.7-0.3-1.9-1.7-1.9c-1.3,0-1.8,1.1-1.8,1.9H36.3z"/>
	<path fill="#005695" d="M41,142.1c0-1.4,0-2.3-0.1-3.1h2.6l0.1,1.8h0.1c0.5-1.4,1.7-2,2.6-2c0.3,0,0.4,0,0.6,0v2.8
		c-0.2-0.1-0.5-0.1-0.8-0.1c-1.1,0-1.8,0.6-2,1.5c0,0.2-0.1,0.4-0.1,0.7v4.8h-3V142.1z"/>
	<path fill="#005695" d="M51.4,136.3c0,0.8-0.6,1.5-1.6,1.5c-0.9,0-1.6-0.7-1.5-1.5c0-0.9,0.6-1.5,1.6-1.5
		C50.8,134.8,51.4,135.5,51.4,136.3z M48.3,148.5V139h3v9.6H48.3z"/>
	<path fill="#005695" d="M60.7,148.3c-0.5,0.2-1.5,0.4-2.7,0.4c-3.1,0-5.1-1.9-5.1-4.9c0-2.8,1.9-5.1,5.5-5.1c0.8,0,1.6,0.1,2.3,0.4
		l-0.5,2.2c-0.4-0.2-0.9-0.3-1.7-0.3c-1.6,0-2.6,1.1-2.6,2.7c0,1.8,1.2,2.7,2.6,2.7c0.7,0,1.3-0.1,1.7-0.3L60.7,148.3z"/>
	<path fill="#005695" d="M70.3,146.2c0,0.9,0,1.8,0.1,2.3h-2.7l-0.2-1h-0.1c-0.6,0.8-1.6,1.2-2.7,1.2c-1.9,0-3.1-1.4-3.1-2.9
		c0-2.5,2.2-3.7,5.6-3.7V142c0-0.5-0.3-1.2-1.7-1.2c-1,0-2,0.3-2.6,0.7l-0.5-1.9c0.7-0.4,2-0.8,3.7-0.8c3.2,0,4.2,1.9,4.2,4.1V146.2
		z M67.4,144c-1.6,0-2.8,0.4-2.8,1.5c0,0.8,0.5,1.1,1.2,1.1c0.7,0,1.4-0.5,1.5-1.1c0-0.2,0.1-0.3,0.1-0.5V144z"/>
	<path fill="#005695" d="M71.9,142c0-1.2,0-2.2-0.1-3h2.6l0.1,1.3h0.1c0.4-0.6,1.4-1.5,3-1.5c2,0,3.4,1.3,3.4,4.1v5.7h-3v-5.3
		c0-1.2-0.4-2.1-1.5-2.1c-0.8,0-1.3,0.6-1.5,1.1c-0.1,0.2-0.1,0.5-0.1,0.7v5.5h-3V142z"/>
	<path fill="#005695" d="M90.6,135.4v13.2h-3v-13.2H90.6z"/>
	<path fill="#005695" d="M92.7,142c0-1.2,0-2.2-0.1-3h2.6l0.1,1.3h0.1c0.4-0.6,1.4-1.5,3-1.5c2,0,3.4,1.3,3.4,4.1v5.7h-3v-5.3
		c0-1.2-0.4-2.1-1.5-2.1c-0.8,0-1.3,0.6-1.5,1.1c-0.1,0.2-0.1,0.5-0.1,0.7v5.5h-3V142z"/>
	<path fill="#005695" d="M103.7,145.9c0.5,0.3,1.7,0.7,2.6,0.7c0.9,0,1.3-0.3,1.3-0.8s-0.3-0.7-1.4-1.1c-2-0.7-2.7-1.7-2.7-2.9
		c0-1.8,1.5-3.1,3.9-3.1c1.1,0,2.1,0.3,2.7,0.5l-0.5,2.1c-0.4-0.2-1.3-0.5-2.1-0.5c-0.7,0-1.1,0.3-1.1,0.8c0,0.4,0.4,0.7,1.5,1.1
		c1.8,0.6,2.6,1.5,2.6,3c0,1.8-1.4,3.1-4.1,3.1c-1.3,0-2.4-0.3-3.1-0.7L103.7,145.9z"/>
	<path fill="#005695" d="M115.6,136.4v2.6h2.1v2.2h-2.1v3.5c0,1.2,0.3,1.7,1.2,1.7c0.4,0,0.6,0,0.9-0.1l0,2.2
		c-0.4,0.2-1.1,0.3-1.9,0.3c-1,0-1.8-0.4-2.2-0.8c-0.5-0.6-0.8-1.5-0.8-2.8v-3.9h-1.3V139h1.3v-1.8L115.6,136.4z"/>
	<path fill="#005695" d="M122.7,136.3c0,0.8-0.6,1.5-1.6,1.5c-0.9,0-1.6-0.7-1.5-1.5c0-0.9,0.6-1.5,1.6-1.5
		C122,134.8,122.6,135.5,122.7,136.3z M119.6,148.5V139h3v9.6H119.6z"/>
	<path fill="#005695" d="M128.3,136.4v2.6h2.1v2.2h-2.1v3.5c0,1.2,0.3,1.7,1.2,1.7c0.4,0,0.6,0,0.9-0.1l0,2.2
		c-0.4,0.2-1.1,0.3-1.9,0.3c-1,0-1.8-0.4-2.2-0.8c-0.5-0.6-0.8-1.5-0.8-2.8v-3.9h-1.3V139h1.3v-1.8L128.3,136.4z"/>
	<path fill="#005695" d="M141.3,145.5c0,1.2,0,2.3,0.1,3.1h-2.6l-0.1-1.3h-0.1c-0.4,0.6-1.3,1.6-3,1.6c-1.9,0-3.4-1.2-3.4-4.2V139h3
		v5.1c0,1.4,0.4,2.2,1.5,2.2c0.8,0,1.3-0.6,1.5-1c0.1-0.2,0.1-0.4,0.1-0.6V139h3V145.5z"/>
	<path fill="#005695" d="M146.8,136.4v2.6h2.1v2.2h-2.1v3.5c0,1.2,0.3,1.7,1.2,1.7c0.4,0,0.6,0,0.9-0.1l0,2.2
		c-0.4,0.2-1.1,0.3-1.9,0.3c-1,0-1.8-0.4-2.2-0.8c-0.5-0.6-0.8-1.5-0.8-2.8v-3.9h-1.3V139h1.3v-1.8L146.8,136.4z"/>
	<path fill="#005695" d="M152.9,144.7c0.1,1.2,1.3,1.8,2.7,1.8c1,0,1.8-0.1,2.6-0.4l0.4,2c-1,0.4-2.2,0.6-3.5,0.6
		c-3.2,0-5.1-1.9-5.1-4.9c0-2.4,1.5-5.1,4.8-5.1c3.1,0,4.3,2.4,4.3,4.8c0,0.5-0.1,1-0.1,1.2H152.9z M156.4,142.7
		c0-0.7-0.3-1.9-1.7-1.9c-1.2,0-1.8,1.1-1.8,1.9H156.4z"/>
	<path fill="#005695" d="M10.1,165.5c0,3.5-2.5,5.1-5,5.1c-2.8,0-4.9-1.8-4.9-4.9c0-3.1,2-5.1,5.1-5.1
		C8.2,160.6,10.1,162.6,10.1,165.5z M3.2,165.6c0,1.6,0.7,2.9,2,2.9c1.2,0,1.9-1.2,1.9-2.9c0-1.4-0.5-2.9-1.9-2.9
		C3.8,162.7,3.2,164.1,3.2,165.6z"/>
	<path fill="#005695" d="M12.4,170.3V163h-1.3v-2.2h1.3v-0.4c0-1.2,0.4-2.4,1.2-3.2c0.7-0.7,1.8-1,2.6-1c0.7,0,1.2,0.1,1.6,0.2
		l-0.1,2.3c-0.3-0.1-0.6-0.1-1-0.1c-1,0-1.4,0.8-1.4,1.7v0.5h1.9v2.2h-1.9v7.4H12.4z"/>
	<path fill="#005695" d="M32.6,170c-0.5,0.3-1.8,0.6-3.4,0.6c-4.6,0-6.9-2.9-6.9-6.6c0-4.5,3.2-7,7.2-7c1.5,0,2.7,0.3,3.2,0.6
		l-0.6,2.4c-0.6-0.3-1.4-0.5-2.5-0.5c-2.4,0-4.2,1.4-4.2,4.4c0,2.6,1.6,4.3,4.2,4.3c0.9,0,1.9-0.2,2.5-0.4L32.6,170z"/>
	<path fill="#005695" d="M36.5,166.5c0.1,1.2,1.3,1.8,2.7,1.8c1,0,1.8-0.1,2.6-0.4l0.4,2c-1,0.4-2.2,0.6-3.5,0.6
		c-3.2,0-5.1-1.9-5.1-4.9c0-2.4,1.5-5.1,4.8-5.1c3.1,0,4.3,2.4,4.3,4.8c0,0.5-0.1,1-0.1,1.2H36.5z M40,164.5c0-0.7-0.3-1.9-1.7-1.9
		c-1.3,0-1.8,1.1-1.8,1.9H40z"/>
	<path fill="#005695" d="M44.6,163.9c0-1.4,0-2.3-0.1-3.1h2.6l0.1,1.8h0.1c0.5-1.4,1.7-2,2.6-2c0.3,0,0.4,0,0.6,0v2.8
		c-0.2-0.1-0.5-0.1-0.8-0.1c-1.1,0-1.8,0.6-2,1.5c0,0.2-0.1,0.4-0.1,0.7v4.8h-3V163.9z"/>
	<path fill="#005695" d="M55.7,158.2v2.6h2.1v2.2h-2.1v3.5c0,1.2,0.3,1.7,1.2,1.7c0.4,0,0.6,0,0.9-0.1l0,2.2
		c-0.4,0.2-1.1,0.3-1.9,0.3c-1,0-1.8-0.3-2.2-0.8c-0.5-0.6-0.8-1.5-0.8-2.8V163h-1.3v-2.2h1.3V159L55.7,158.2z"/>
	<path fill="#005695" d="M62.8,158.1c0,0.8-0.6,1.5-1.6,1.5c-0.9,0-1.6-0.7-1.5-1.5c0-0.9,0.6-1.5,1.6-1.5
		C62.2,156.6,62.8,157.3,62.8,158.1z M59.8,170.3v-9.6h3v9.6H59.8z"/>
	<path fill="#005695" d="M65.6,170.3V163h-1.3v-2.2h1.3v-0.4c0-2.6,2.1-4.1,5-4.1c1,0,2.2,0.2,2.8,0.6l-0.6,2.2
		c-0.5-0.3-1.2-0.5-2.2-0.5c-1.6,0-2.1,0.8-2.1,1.9v0.3h5.8v9.6h-3V163h-2.8v7.4H65.6z"/>
	<path fill="#005695" d="M79.1,166.5c0.1,1.2,1.3,1.8,2.7,1.8c1,0,1.8-0.1,2.6-0.4l0.4,2c-1,0.4-2.2,0.6-3.5,0.6
		c-3.2,0-5.1-1.9-5.1-4.9c0-2.4,1.5-5.1,4.8-5.1c3.1,0,4.3,2.4,4.3,4.8c0,0.5-0.1,1-0.1,1.2H79.1z M82.6,164.5
		c0-0.7-0.3-1.9-1.7-1.9c-1.2,0-1.8,1.1-1.8,1.9H82.6z"/>
	<path fill="#005695" d="M96.4,156.5v11c0,1.1,0,2.2,0.1,2.9h-2.6l-0.1-1.4h0c-0.6,1.1-1.8,1.6-3,1.6c-2.3,0-4.1-1.9-4.1-4.9
		c0-3.2,2-5.1,4.3-5.1c1.2,0,2.1,0.4,2.5,1.1h0v-5.2H96.4z M93.4,164.8c0-0.2,0-0.4,0-0.5c-0.2-0.8-0.8-1.5-1.7-1.5
		c-1.3,0-2.1,1.2-2.1,2.7c0,1.6,0.8,2.6,2,2.6c0.9,0,1.5-0.6,1.7-1.4c0.1-0.2,0.1-0.4,0.1-0.7V164.8z"/>
	<path fill="#005695" d="M103,157.3c0.9-0.2,2.2-0.3,4-0.3c1.8,0,3.1,0.4,4,1.1c0.8,0.7,1.4,1.8,1.4,3c0,1.3-0.4,2.4-1.2,3.1
		c-1,1-2.5,1.4-4.3,1.4c-0.4,0-0.7,0-1-0.1v4.7h-3V157.3z M105.9,163.3c0.3,0.1,0.6,0.1,1,0.1c1.6,0,2.6-0.8,2.6-2.2
		c0-1.2-0.8-1.9-2.3-1.9c-0.6,0-1,0.1-1.2,0.1V163.3z"/>
	<path fill="#005695" d="M113.8,156.5h3v13.9h-3V156.5z"/>
	<path fill="#005695" d="M126.9,168c0,0.9,0,1.8,0.1,2.3h-2.7l-0.2-1h-0.1c-0.6,0.8-1.6,1.2-2.7,1.2c-1.9,0-3.1-1.4-3.1-2.9
		c0-2.5,2.2-3.7,5.6-3.7v-0.1c0-0.5-0.3-1.2-1.7-1.2c-1,0-2,0.3-2.6,0.7l-0.5-1.9c0.7-0.4,2-0.8,3.7-0.8c3.2,0,4.2,1.9,4.2,4.1V168z
		 M124,165.8c-1.6,0-2.8,0.4-2.8,1.5c0,0.8,0.5,1.1,1.2,1.1c0.7,0,1.4-0.5,1.5-1.1c0-0.2,0.1-0.3,0.1-0.5V165.8z"/>
	<path fill="#005695" d="M129.2,163.8c0-1.2,0-2.2-0.1-3h2.6l0.1,1.3h0.1c0.4-0.6,1.4-1.5,2.9-1.5c2,0,3.4,1.3,3.4,4.1v5.7h-3V165
		c0-1.2-0.4-2.1-1.5-2.1c-0.8,0-1.3,0.6-1.5,1.1c-0.1,0.2-0.1,0.5-0.1,0.7v5.5h-3V163.8z"/>
	<path fill="#005695" d="M140.4,163.8c0-1.2,0-2.2-0.1-3h2.6l0.1,1.3h0.1c0.4-0.6,1.4-1.5,3-1.5c2,0,3.4,1.3,3.4,4.1v5.7h-3V165
		c0-1.2-0.4-2.1-1.5-2.1c-0.8,0-1.3,0.6-1.5,1.1c-0.1,0.2-0.1,0.5-0.1,0.7v5.5h-3V163.8z"/>
	<path fill="#005695" d="M153.7,166.5c0.1,1.2,1.3,1.8,2.7,1.8c1,0,1.8-0.1,2.6-0.4l0.4,2c-1,0.4-2.2,0.6-3.5,0.6
		c-3.2,0-5.1-1.9-5.1-4.9c0-2.4,1.5-5.1,4.8-5.1c3.1,0,4.3,2.4,4.3,4.8c0,0.5-0.1,1-0.1,1.2H153.7z M157.2,164.5
		c0-0.7-0.3-1.9-1.7-1.9c-1.3,0-1.8,1.1-1.8,1.9H157.2z"/>
	<path fill="#005695" d="M161.8,163.9c0-1.4,0-2.3-0.1-3.1h2.6l0.1,1.8h0.1c0.5-1.4,1.7-2,2.6-2c0.3,0,0.4,0,0.6,0v2.8
		c-0.2-0.1-0.5-0.1-0.8-0.1c-1.1,0-1.8,0.6-2,1.5c0,0.2-0.1,0.4-0.1,0.7v4.8h-3V163.9z"/>
	<path fill="#005695" d="M169.3,167.7c0.5,0.3,1.7,0.7,2.6,0.7c0.9,0,1.3-0.3,1.3-0.8c0-0.5-0.3-0.7-1.4-1.1c-2-0.7-2.7-1.7-2.7-2.9
		c0-1.8,1.5-3.1,3.9-3.1c1.1,0,2.1,0.3,2.7,0.5l-0.5,2.1c-0.4-0.2-1.3-0.5-2.1-0.5c-0.7,0-1.1,0.3-1.1,0.8c0,0.5,0.4,0.7,1.5,1.1
		c1.8,0.6,2.6,1.5,2.6,3c0,1.8-1.4,3.1-4.1,3.1c-1.2,0-2.4-0.3-3.1-0.7L169.3,167.7z"/>
	<g>
		<path fill="#005695" d="M11.7,203.2l1-8.2c0.1-1.2,0.4-3.1,0.6-4h-0.1c-0.5,1.1-1.2,2.5-1.9,3.8l-4.7,8.4H6L4.7,195
			c-0.3-1.5-0.4-2.9-0.5-4h0c-0.2,0.9-0.6,2.9-0.9,4l-2.1,8.2H0.3L3.7,190h1l1.4,9.1c0.2,1,0.3,2.1,0.4,2.8h0.1
			c0.3-0.7,0.8-1.6,1.4-2.7l5.1-9.2h1.1l-1.6,13.2H11.7z"/>
		<path fill="#005695" d="M21.3,203.2c0-0.6,0.1-1.6,0.3-2.8h0c-1.1,2.2-2.5,3-3.9,3c-1.6,0-2.6-1.3-2.6-3c0-3.3,2.6-6.8,6.3-6.8
			c0.8,0,1.6,0.1,2.2,0.3l-0.9,4.9c-0.4,1.9-0.5,3.5-0.4,4.4H21.3z M22.5,194.5c-0.2-0.1-0.6-0.2-1.4-0.2c-2.8,0-5.2,2.7-5.3,5.9
			c0,1.1,0.4,2.4,1.9,2.4c1.7,0,3.6-2.2,4.1-4.9L22.5,194.5z"/>
		<path fill="#005695" d="M24.5,203.2l2.7-13.9h0.9l-1.7,9h0c0.3-0.3,0.7-0.7,0.9-0.9l3.9-3.6h1.1l-4.2,3.8l2.9,5.6h-0.9l-2.6-5
			l-1.3,1.1l-0.7,3.9H24.5z"/>
		<path fill="#005695" d="M32.4,203.2l1.8-9.4h0.9l-1.8,9.4H32.4z M35.1,191.9c-0.4,0-0.6-0.4-0.6-0.8c0-0.4,0.3-0.8,0.7-0.8
			c0.4,0,0.7,0.3,0.7,0.8C35.8,191.5,35.6,191.9,35.1,191.9L35.1,191.9z"/>
		<path fill="#005695" d="M36.1,203.2l1.3-6.9c0.2-1,0.3-1.8,0.4-2.5h0.8l-0.3,2h0c0.8-1.4,2.2-2.2,3.6-2.2c0.8,0,2.3,0.4,2.3,2.6
			c0,0.4-0.1,1-0.2,1.5l-1,5.5h-0.9l1.1-5.6c0.1-0.4,0.1-0.9,0.1-1.3c0-1.1-0.5-2-1.8-2c-1.3,0-3.3,1.5-3.8,4l-0.9,4.8H36.1z"/>
		<path fill="#005695" d="M45.5,205.8c0.6,0.4,1.4,0.7,2.5,0.7c1.7,0,3.1-0.9,3.8-3.9l0.4-1.8h0c-0.9,1.6-2.2,2.4-3.6,2.4
			c-1.9,0-2.8-1.6-2.8-3.2c0-3.3,2.4-6.5,5.7-6.5c0.9,0,2.2,0.3,2.7,0.6l-1.4,7.8c-0.4,2.2-1,3.4-1.8,4.2c-0.9,0.8-2.1,1-3.1,1
			c-1.1,0-2.1-0.3-2.7-0.7L45.5,205.8z M53.2,194.7c-0.4-0.2-1.1-0.4-1.9-0.4c-2.8,0-4.7,2.8-4.7,5.5c0,1.1,0.3,2.6,2.1,2.6
			c1.7,0,3.4-2.2,3.8-4.2L53.2,194.7z"/>
		<path fill="#005695" d="M68.3,202.6c-0.6,0.3-1.9,0.7-3.4,0.7c-1.9,0-3.3-0.6-4.3-1.8c-1-1.2-1.1-2.6-1.1-3.7c0-2,0.8-4.4,2.5-6
			c1.4-1.2,3.2-2,5.2-2c1.6,0,2.5,0.4,2.9,0.6l-0.3,0.7c-0.7-0.4-1.6-0.6-2.8-0.6c-1.7,0-3.3,0.7-4.5,1.9c-1.3,1.3-2,3.4-2,5.2
			c0,2.8,1.3,4.8,4.7,4.8c0.9,0,1.8-0.2,2.3-0.4l0.9-4.7h-3.1l0.1-0.8h3.9L68.3,202.6z"/>
		<path fill="#005695" d="M70.6,203.2l1.2-6.3c0.2-1.1,0.4-2.2,0.5-3.1h0.8c-0.1,0.7-0.2,1.3-0.3,2.1h0.1c0.6-1.3,1.6-2.3,2.8-2.3
			c0.1,0,0.3,0,0.4,0l-0.2,0.9c-0.1,0-0.2,0-0.4,0c-1.2,0-2.7,1.8-3.1,4.1l-0.9,4.6H70.6z"/>
		<path fill="#005695" d="M81.7,202.6c-0.5,0.3-1.4,0.8-2.8,0.8c-2.4,0-3.3-1.8-3.3-3.7c0-2.8,2.1-6.1,4.9-6.1
			c1.7,0,2.4,1.1,2.4,2.1c0,2.5-3,3-6.4,3c-0.1,0.5-0.1,1.7,0.1,2.3c0.4,1.1,1.2,1.6,2.3,1.6c1.2,0,2-0.4,2.5-0.7L81.7,202.6z
			 M82,195.7c0-0.9-0.7-1.4-1.7-1.4c-1.7,0-3.1,1.8-3.6,3.6C79.4,198,82,197.6,82,195.7L82,195.7z"/>
		<path fill="#005695" d="M89.8,203.2c0-0.6,0.1-1.6,0.3-2.8h0c-1.1,2.2-2.5,3-3.9,3c-1.6,0-2.6-1.3-2.6-3c0-3.3,2.6-6.8,6.3-6.8
			c0.8,0,1.6,0.1,2.2,0.3l-0.9,4.9c-0.4,1.9-0.5,3.5-0.4,4.4H89.8z M91,194.5c-0.2-0.1-0.6-0.2-1.4-0.2c-2.8,0-5.2,2.7-5.3,5.9
			c0,1.1,0.4,2.4,1.9,2.4c1.7,0,3.6-2.2,4.1-4.9L91,194.5z"/>
		<path fill="#005695" d="M96.4,191.7l-0.4,2.1h2.4l-0.1,0.7h-2.4l-1,5.4c-0.1,0.6-0.2,1.1-0.2,1.7c0,0.6,0.3,1,0.9,1
			c0.3,0,0.6,0,0.8-0.1l0.1,0.7c-0.3,0.1-0.6,0.2-1,0.2c-1.3,0-1.7-0.9-1.7-1.7c0-0.6,0.1-1.1,0.2-1.8l1-5.4h-1.4l0.1-0.7h1.4
			l0.3-1.7L96.4,191.7z"/>
		<path fill="#005695" d="M111,202.7c-0.8,0.3-2,0.7-3.4,0.7c-3.2,0-5.1-2.1-5.1-5.4c0-2.2,0.8-4.6,2.5-6.2c1.4-1.3,3.1-2,5-2
			c1.5,0,2.5,0.4,2.8,0.7l-0.4,0.7c-0.5-0.4-1.5-0.6-2.7-0.6c-1.5,0-3.1,0.6-4.2,1.8c-1.3,1.3-2.1,3.4-2.1,5.5c0,2.5,1,4.8,4.3,4.8
			c1,0,2.2-0.2,3-0.6L111,202.7z"/>
		<path fill="#005695" d="M120.6,197.5c0,2.6-1.9,5.9-5,5.9c-2.3,0-3.5-1.9-3.5-3.8c0-3,2.1-6,5-6
			C119.6,193.6,120.6,195.6,120.6,197.5z M113.1,199.5c0,1.8,1,3.1,2.7,3.1c2.1,0,3.9-2.6,3.9-5.1c0-1.3-0.6-3.2-2.6-3.2
			C114.7,194.3,113.1,196.9,113.1,199.5z"/>
		<path fill="#005695" d="M121.6,203.2l1.3-6.9c0.2-1,0.3-1.8,0.4-2.5h0.8l-0.3,1.9h0c0.9-1.4,2.1-2.1,3.4-2.1
			c1.4,0,2.1,0.9,2.2,2.3c0.8-1.4,2-2.3,3.6-2.3c0.9,0,2.3,0.5,2.3,2.4c0,0.4,0,1-0.1,1.6l-1.1,5.6h-0.9l1.1-5.6
			c0.1-0.3,0.1-0.9,0.1-1.3c0-1.2-0.4-2-1.7-2c-1.3,0-3,1.4-3.4,3.7l-1,5.2h-0.9l1.1-5.7c0.1-0.5,0.1-0.8,0.1-1.2
			c0-0.9-0.2-1.9-1.7-1.9c-1.3,0-3.1,1.7-3.5,3.8l-0.9,5H121.6z"/>
		<path fill="#005695" d="M136.8,203.2l1.3-6.9c0.2-1,0.3-1.8,0.4-2.5h0.8l-0.3,1.9h0c0.9-1.4,2.1-2.1,3.4-2.1
			c1.4,0,2.1,0.9,2.2,2.3c0.8-1.4,2-2.3,3.6-2.3c0.9,0,2.3,0.5,2.3,2.4c0,0.4,0,1-0.1,1.6l-1.1,5.6h-0.9l1.1-5.6
			c0.1-0.3,0.1-0.9,0.1-1.3c0-1.2-0.4-2-1.7-2c-1.3,0-3,1.4-3.4,3.7l-1,5.2h-0.9l1.1-5.7c0.1-0.5,0.1-0.8,0.1-1.2
			c0-0.9-0.2-1.9-1.7-1.9c-1.3,0-3.1,1.7-3.5,3.8l-0.9,5H136.8z"/>
		<path fill="#005695" d="M160.4,193.8l-1.3,6.9c-0.2,0.9-0.3,1.8-0.4,2.5h-0.8l0.3-1.9h0c-0.8,1.2-2.1,2.2-3.4,2.2
			c-1,0-2.5-0.4-2.5-2.8c0-0.4,0.1-0.9,0.2-1.5l1-5.3h0.9l-1,5.4c-0.1,0.6-0.2,1-0.2,1.5c0,1.2,0.5,2,1.9,2c1.3,0,3.1-1.5,3.6-3.7
			l1-5.1H160.4z"/>
		<path fill="#005695" d="M161.4,203.2l1.3-6.9c0.2-1,0.3-1.8,0.4-2.5h0.8l-0.3,2h0c0.8-1.4,2.2-2.2,3.6-2.2c0.8,0,2.3,0.4,2.3,2.6
			c0,0.4-0.1,1-0.2,1.5l-1,5.5h-0.9l1.1-5.6c0.1-0.4,0.1-0.9,0.1-1.3c0-1.1-0.5-2-1.8-2c-1.3,0-3.3,1.5-3.8,4l-0.9,4.8H161.4z"/>
		<path fill="#005695" d="M171,203.2l1.8-9.4h0.9l-1.8,9.4H171z M173.7,191.9c-0.4,0-0.6-0.4-0.6-0.8c0-0.4,0.3-0.8,0.7-0.8
			c0.5,0,0.7,0.3,0.7,0.8C174.5,191.5,174.2,191.9,173.7,191.9L173.7,191.9z"/>
		<path fill="#005695" d="M178.1,191.7l-0.4,2.1h2.4l-0.1,0.7h-2.4l-1,5.4c-0.1,0.6-0.2,1.1-0.2,1.7c0,0.6,0.3,1,0.9,1
			c0.3,0,0.6,0,0.8-0.1l0.1,0.7c-0.3,0.1-0.6,0.2-1,0.2c-1.2,0-1.7-0.9-1.7-1.7c0-0.6,0.1-1.1,0.2-1.8l1-5.4h-1.4l0.1-0.7h1.4
			l0.3-1.7L178.1,191.7z"/>
		<path fill="#005695" d="M179.9,203.2l1.8-9.4h0.9l-1.8,9.4H179.9z M182.6,191.9c-0.4,0-0.6-0.4-0.6-0.8c0-0.4,0.3-0.8,0.7-0.8
			c0.5,0,0.7,0.3,0.7,0.8C183.4,191.5,183.1,191.9,182.6,191.9L182.6,191.9z"/>
		<path fill="#005695" d="M189.7,202.6c-0.5,0.3-1.4,0.8-2.8,0.8c-2.4,0-3.3-1.8-3.3-3.7c0-2.8,2.1-6.1,4.9-6.1
			c1.7,0,2.4,1.1,2.4,2.1c0,2.5-3,3-6.4,3c-0.1,0.5-0.1,1.7,0.1,2.3c0.4,1.1,1.2,1.6,2.3,1.6c1.2,0,2-0.4,2.5-0.7L189.7,202.6z
			 M190,195.7c0-0.9-0.7-1.4-1.7-1.4c-1.7,0-3.1,1.8-3.6,3.6C187.5,198,190,197.6,190,195.7L190,195.7z"/>
		<path fill="#005695" d="M191.5,202c0.4,0.3,1.1,0.5,1.8,0.5c1.3,0,2.2-0.9,2.2-2c0-0.9-0.3-1.5-1.4-2.1c-1.1-0.6-1.5-1.5-1.5-2.3
			c0-1.4,1.2-2.7,3-2.7c0.7,0,1.4,0.2,1.7,0.4l-0.3,0.8c-0.3-0.2-0.8-0.4-1.4-0.4c-1.1,0-2,0.8-2,1.8c0,0.9,0.5,1.4,1.4,1.9
			c1.1,0.6,1.5,1.5,1.5,2.4c0,1.9-1.5,3-3.1,3c-0.9,0-1.7-0.3-2-0.6L191.5,202z"/>
		<path fill="#005695" d="M205.5,190l-1.1,5.8h6.9l1.1-5.8h0.9l-2.5,13.2h-0.9l1.2-6.6h-6.8l-1.3,6.6h-0.9l2.5-13.2H205.5z"/>
		<path fill="#005695" d="M219.9,203.2c0-0.6,0.1-1.6,0.3-2.8h0c-1.1,2.2-2.5,3-3.9,3c-1.6,0-2.6-1.3-2.6-3c0-3.3,2.6-6.8,6.3-6.8
			c0.8,0,1.6,0.1,2.2,0.3l-0.9,4.9c-0.4,1.9-0.5,3.5-0.4,4.4H219.9z M221.1,194.5c-0.2-0.1-0.6-0.2-1.3-0.2c-2.8,0-5.2,2.7-5.3,5.9
			c0,1.1,0.4,2.4,1.9,2.4c1.7,0,3.6-2.2,4.1-4.9L221.1,194.5z"/>
		<path fill="#005695" d="M222.2,207l1.9-10.1c0.2-1.1,0.4-2.2,0.5-3.1h0.8l-0.3,2h0c0.9-1.4,2.2-2.2,3.6-2.2c2.1,0,2.8,1.7,2.8,3.3
			c0,3.3-2.5,6.5-5.5,6.5c-1.2,0-1.8-0.2-2.2-0.5h0l-0.7,4.1H222.2z M224.1,202.1c0.5,0.4,1.2,0.5,2.1,0.5c2.4,0,4.5-2.9,4.5-5.7
			c0-1.1-0.5-2.6-2.2-2.6c-1.4,0-3.4,1.6-4,4.8L224.1,202.1z"/>
		<path fill="#005695" d="M231.9,207l1.9-10.1c0.2-1.1,0.4-2.2,0.5-3.1h0.8l-0.3,2h0c0.9-1.4,2.2-2.2,3.6-2.2c2.1,0,2.8,1.7,2.8,3.3
			c0,3.3-2.5,6.5-5.5,6.5c-1.2,0-1.8-0.2-2.2-0.5h0l-0.7,4.1H231.9z M233.7,202.1c0.5,0.4,1.2,0.5,2.1,0.5c2.4,0,4.5-2.9,4.5-5.7
			c0-1.1-0.5-2.6-2.2-2.6c-1.4,0-3.4,1.6-4,4.8L233.7,202.1z"/>
		<path fill="#005695" d="M248.6,202.6c-0.5,0.3-1.4,0.8-2.8,0.8c-2.4,0-3.3-1.8-3.3-3.7c0-2.8,2.1-6.1,4.9-6.1
			c1.7,0,2.4,1.1,2.4,2.1c0,2.5-3.1,3-6.4,3c-0.1,0.5-0.1,1.7,0.1,2.3c0.4,1.1,1.2,1.6,2.3,1.6c1.2,0,2-0.4,2.5-0.7L248.6,202.6z
			 M248.9,195.7c0-0.9-0.7-1.4-1.7-1.4c-1.7,0-3.1,1.8-3.6,3.6C246.4,198,248.9,197.6,248.9,195.7L248.9,195.7z"/>
		<path fill="#005695" d="M250.4,203.2l1.3-6.9c0.2-1,0.3-1.8,0.4-2.5h0.8l-0.3,2h0c0.8-1.4,2.2-2.2,3.6-2.2c0.8,0,2.3,0.4,2.3,2.6
			c0,0.4-0.1,1-0.2,1.5l-1,5.5h-0.9l1.1-5.6c0.1-0.4,0.1-0.9,0.1-1.3c0-1.1-0.5-2-1.8-2c-1.3,0-3.3,1.5-3.8,4l-0.9,4.8H250.4z"/>
	</g>
</g>
</svg>
