<svg xmlns="http://www.w3.org/2000/svg" width="193" height="268" viewBox="0 0 193 268"><path fill="#3C7491" d="M182.298 169.441v18.555a2.448 2.448 0 0 1-2.441 2.441h-24.414a2.448 2.448 0 0 1-2.441-2.441v-18.555a2.448 2.448 0 0 1 2.441-2.441h24.414a2.448 2.448 0 0 1 2.441 2.441zm-27.344 0v3.418h25.391v-3.418a.502.502 0 0 0-.488-.488h-24.414a.502.502 0 0 0-.489.488zm25.391 18.555v-9.277h-25.391v9.277c0 .259.229.488.488.488h24.414c.26 0 .489-.229.489-.488zm-23.437-3.418h3.906v1.953h-3.906v-1.953zm5.859 0h5.859v1.953h-5.859v-1.953z"/><path fill="#B5B5B5" d="M182.298 194.441v18.555a2.448 2.448 0 0 1-2.441 2.441h-24.414a2.448 2.448 0 0 1-2.441-2.441v-18.555a2.448 2.448 0 0 1 2.441-2.441h24.414a2.448 2.448 0 0 1 2.441 2.441zm-27.344 0v3.418h25.391v-3.418a.502.502 0 0 0-.488-.488h-24.414a.502.502 0 0 0-.489.488zm25.391 18.555v-9.277h-25.391v9.277c0 .259.229.488.488.488h24.414c.26 0 .489-.229.489-.488zm-23.437-3.418h3.906v1.953h-3.906v-1.953zm5.859 0h5.859v1.953h-5.859v-1.953z"/><path fill="#3C7491" d="M182.298 219.441v18.555c0 1.343-1.1 2.441-2.441 2.441h-24.415a2.448 2.448 0 0 1-2.441-2.441v-18.555a2.448 2.448 0 0 1 2.441-2.441h24.415a2.449 2.449 0 0 1 2.441 2.441zm-1.953 3.418v-3.418a.502.502 0 0 0-.488-.488h-24.415a.502.502 0 0 0-.488.488V237.995c0 .259.229.488.488.488h24.415a.502.502 0 0 0 .488-.488v-15.136z"/><path fill="#3C7491" d="M171.226 223.136h6.5v4.822h-6.5zM156.863 226.982h9.977v1.953h-9.977zM156.863 230.987h20.745v1.953h-20.745z"/><g><path fill="#B5B5B5" d="M182.298 244.502v18.555c0 1.343-1.1 2.441-2.441 2.441h-24.415a2.448 2.448 0 0 1-2.441-2.441v-18.555a2.448 2.448 0 0 1 2.441-2.441h24.415a2.449 2.449 0 0 1 2.441 2.441zm-1.953 3.418v-3.418a.502.502 0 0 0-.488-.488h-24.415a.502.502 0 0 0-.488.488V263.056c0 .259.229.488.488.488h24.415a.502.502 0 0 0 .488-.488V247.92z"/><path fill="#B5B5B5" d="M171.226 248.197h6.5v4.822h-6.5zM156.863 252.043h9.977v1.953h-9.977zM156.863 256.048h20.745v1.953h-20.745z"/></g><g><circle fill="#60B7E4" cx="160.4" cy="158.527" r="7.25"/><path fill="#FFF" d="M159.47 160.144l-.013-.338c-.039-.662.182-1.336.766-2.037.415-.493.752-.909.752-1.35 0-.454-.298-.752-.947-.778-.428 0-.947.156-1.284.389l-.441-1.415c.467-.272 1.246-.532 2.167-.532 1.713 0 2.491.947 2.491 2.025 0 .986-.61 1.635-1.103 2.179-.48.532-.675 1.038-.662 1.622v.234h-1.726zm-.337 1.79c0-.688.48-1.181 1.155-1.181.701 0 1.155.493 1.167 1.181 0 .675-.467 1.181-1.167 1.181-.687 0-1.155-.506-1.155-1.181z"/></g><g><path fill="#4B8FB2" d="M141.619 173.571c0 1.773-1.486 3.224-3.302 3.224h-33.016c-1.816 0-3.302-1.451-3.302-3.224v-19.346c0-1.773 1.486-3.224 3.302-3.224h33.016c1.816 0 3.302 1.451 3.302 3.224v19.346z"/><g fill="none" stroke="#E5E5E5" stroke-width="2.291" stroke-linecap="round" stroke-linejoin="round" stroke-miterlimit="10"><path d="M112.147 167.379l-.355-1.351h-2.342l-.365 1.351h-2.14l2.352-7.237h2.598l2.38 7.237h-2.128zm-.759-2.949l-.311-1.183c-.073-.262-.16-.602-.264-1.02-.103-.418 1.4-1.235-.193-1.217s-.1.764-.187 1.148c-.087.384-.28 1.142-.579 2.272h1.534zM118.196 167.379l-1.474-5.192h-.044c.069.884.103 1.57.103 2.061v3.13h-1.725v-7.208h2.592l1.504 5.118h.04l1.473-5.118h2.599v7.208h-1.79v-3.16c0-.164.003-.346.008-.547.005-.201.027-.692.067-1.474h-.044l-1.455 5.182h-1.854zM128.894 167.379h-4.279v-7.208h4.279v1.563h-2.333v1.134h2.16v1.563h-2.16v1.361h2.333v1.587zM136.648 167.379h-2.252l-1.406-2.252-1.389 2.252h-2.204l2.39-3.687-2.248-3.52h2.16L133 162.4l1.251-2.228h2.223l-2.282 3.673 2.456 3.534z"/></g><g fill="#3B7491"><path d="M112.147 167.379l-.355-1.351h-2.342l-.365 1.351h-2.14l2.352-7.237h2.598l2.38 7.237h-2.128zm-.759-2.949l-.311-1.183c-.073-.262-.16-.602-.264-1.02a17.795 17.795 0 0 1-.205-.897c-.029.168-.088.443-.175.828-.087.384-.28 1.142-.579 2.272h1.534zM118.196 167.379l-1.474-5.192h-.044c.069.884.103 1.57.103 2.061v3.13h-1.725v-7.208h2.592l1.504 5.118h.04l1.473-5.118h2.599v7.208h-1.79v-3.16c0-.164.003-.346.008-.547.005-.201.027-.692.067-1.474h-.044l-1.455 5.182h-1.854zM128.894 167.379h-4.279v-7.208h4.279v1.563h-2.333v1.134h2.16v1.563h-2.16v1.361h2.333v1.587zM136.648 167.379h-2.252l-1.406-2.252-1.389 2.252h-2.204l2.39-3.687-2.248-3.52h2.16L133 162.4l1.251-2.228h2.223l-2.282 3.673 2.456 3.534z"/></g><path fill="#3C7491" d="M90.979 173.75c0 1.788-1.486 3.25-3.302 3.25H54.662c-1.816 0-3.302-1.462-3.302-3.25v-19.5c0-1.788 1.486-3.25 3.302-3.25h33.016c1.816 0 3.302 1.462 3.302 3.25v19.5z"/><path fill="none" stroke="#005484" stroke-width="1.238" stroke-miterlimit="10" d="M76.122 157.397a6.585 6.585 0 0 0-4.952 2.245 6.652 6.652 0 0 1 .001 0 6.585 6.585 0 0 0-4.952-2.245 6.603 6.603 0 0 0 0 13.206 6.585 6.585 0 0 0 4.952-2.245 6.581 6.581 0 0 0 4.952 2.245 6.604 6.604 0 0 0-.001-13.206zm-3.347 5.943c.022.209.041.418.043.633-.001-.216-.038-.423-.059-.633h.016zm-.284-1.321c-.012-.037-.02-.076-.032-.112.013.038.03.074.042.112h-.01zm-.566-1.321c.136.234.252.481.357.734a6.665 6.665 0 0 0-.362-.734h.005zm-1.505 0a6.582 6.582 0 0 1 0 0zm-.8 2.213c.011-.066.018-.134.031-.2v.001c-.013.065-.019.132-.031.199zm-.039.429c-.022.22-.061.435-.061.66s.039.441.061.66c-.022-.22-.061-.435-.061-.66s.038-.441.061-.66zm.069 1.944c-.012-.061-.018-.123-.029-.185.011.061.017.124.029.185zm.199.697a6.582 6.582 0 0 1 0 0zm.587 1.351a6.603 6.603 0 0 1 0 0zm1.483-.03c.142-.244.266-.5.377-.762-.11.262-.232.518-.373.762h-.004zm.52-1.139c.021-.059.033-.122.052-.182h.017c-.02.062-.048.12-.069.182zm.32-1.503c.022-.214.059-.423.06-.643a6.815 6.815 0 0 1-.034.643h-.026z"/><g fill="#DC5665"><path d="M71.17 159.642a6.585 6.585 0 0 0-4.952-2.245 6.603 6.603 0 0 0 0 13.206 6.582 6.582 0 0 0 4.952-2.246c-1.025-1.163-1.651-2.684-1.651-4.357s.626-3.195 1.651-4.358z"/><path d="M71.17 159.642c-1.025 1.163-1.651 2.686-1.651 4.358s.626 3.194 1.651 4.357c1.025-1.163 1.651-2.684 1.651-4.357s-.626-3.195-1.651-4.358z"/></g><path fill="#FFAA79" d="M76.122 157.397a6.585 6.585 0 0 0-5.707 3.302h1.511c.24.413.427.858.575 1.321h-2.67a6.568 6.568 0 0 0-.277 1.321h3.222c.022.218.045.436.045.66 0 .223-.013.443-.035.66h-3.232c.046.456.143.896.277 1.321h2.678a6.628 6.628 0 0 1-.585 1.321h-1.509a6.582 6.582 0 0 0 5.707 3.302 6.605 6.605 0 0 0 0-13.208z"/><path fill="#FFF" d="M40.03 156.339v17.965c0 1.854-1.517 2.696-3.37 2.696H4.303c-1.854 0-3.37-.843-3.37-2.696v-17.965"/><path fill="#FFAA79" d="M40.03 170.933v3.37c0 1.854-1.517 2.696-3.37 2.696H4.303c-1.854 0-3.37-.843-3.37-2.696v-3.37"/><path fill="#3C7491" d="M.933 157.451v-3.37c0-1.854 1.517-3.081 3.37-3.081H36.66c1.854 0 3.37 1.227 3.37 3.081v3.37"/><g fill="#3C7491"><path d="M17.214 168.899h-2.492l1.558-9.049h2.492zM12.625 159.85l-2.376 6.223-.281-1.34v.001l-.839-4.069s-.101-.815-1.182-.815H4.019l-.046.153s1.202.236 2.607 1.035l2.165 7.86h2.597l3.965-9.048h-2.682zM32.23 168.899h2.288l-1.995-9.048h-2.004c-.925 0-1.151.674-1.151.674l-3.717 8.374h2.598l.52-1.344h3.169l.292 1.344zm-2.743-3.201l1.31-3.386.737 3.386h-2.047zM25.846 162.026l.356-1.943s-1.098-.394-2.242-.394c-1.237 0-4.174.511-4.174 2.995 0 2.338 3.447 2.367 3.447 3.594 0 1.227-3.092 1.008-4.112.234l-.371 2.031s1.113.511 2.814.511 4.267-.833 4.267-3.098c0-2.352-3.478-2.572-3.478-3.594-.001-1.023 2.426-.891 3.493-.336z"/></g><path fill="#FFAA79" d="M9.968 164.734l-.839-4.069s-.101-.815-1.182-.815H4.019l-.046.153s1.888.37 3.699 1.755c1.732 1.325 2.296 2.976 2.296 2.976z"/><g><g opacity=".25"><path fill="#4B8FB2" d="M141.619 203.571c0 1.773-1.486 3.224-3.302 3.224h-33.016c-1.816 0-3.302-1.451-3.302-3.224v-19.346c0-1.773 1.486-3.224 3.302-3.224h33.016c1.816 0 3.302 1.451 3.302 3.224v19.346z"/><g fill="none" stroke="#E5E5E5" stroke-width="2.291" stroke-linecap="round" stroke-linejoin="round" stroke-miterlimit="10"><path d="M112.147 197.379l-.355-1.351h-2.342l-.365 1.351h-2.14l2.352-7.237h2.598l2.38 7.237h-2.128zm-.759-2.949l-.311-1.183c-.073-.262-.16-.602-.264-1.02-.103-.418 1.4-1.235-.193-1.217s-.1.764-.187 1.148c-.087.384-.28 1.142-.579 2.272h1.534zM118.196 197.379l-1.474-5.192h-.044c.069.884.103 1.57.103 2.061v3.13h-1.725v-7.208h2.592l1.504 5.118h.04l1.473-5.118h2.599v7.208h-1.79v-3.16c0-.164.003-.346.008-.547.005-.201.027-.692.067-1.474h-.044l-1.455 5.182h-1.854zM128.894 197.379h-4.279v-7.208h4.279v1.563h-2.333v1.134h2.16v1.563h-2.16v1.361h2.333v1.587zM136.648 197.379h-2.252l-1.406-2.252-1.389 2.252h-2.204l2.39-3.687-2.248-3.52h2.16L133 192.4l1.251-2.228h2.223l-2.282 3.673 2.456 3.534z"/></g><g fill="#3B7491"><path d="M112.147 197.379l-.355-1.351h-2.342l-.365 1.351h-2.14l2.352-7.237h2.598l2.38 7.237h-2.128zm-.759-2.949l-.311-1.183c-.073-.262-.16-.602-.264-1.02a17.795 17.795 0 0 1-.205-.897c-.029.168-.088.443-.175.828-.087.384-.28 1.142-.579 2.272h1.534zM118.196 197.379l-1.474-5.192h-.044c.069.884.103 1.57.103 2.061v3.13h-1.725v-7.208h2.592l1.504 5.118h.04l1.473-5.118h2.599v7.208h-1.79v-3.16c0-.164.003-.346.008-.547.005-.201.027-.692.067-1.474h-.044l-1.455 5.182h-1.854zM128.894 197.379h-4.279v-7.208h4.279v1.563h-2.333v1.134h2.16v1.563h-2.16v1.361h2.333v1.587zM136.648 197.379h-2.252l-1.406-2.252-1.389 2.252h-2.204l2.39-3.687-2.248-3.52h2.16L133 192.4l1.251-2.228h2.223l-2.282 3.673 2.456 3.534z"/></g></g><g opacity=".25"><path fill="#3C7491" d="M90.979 203.75c0 1.788-1.486 3.25-3.302 3.25H54.662c-1.816 0-3.302-1.462-3.302-3.25v-19.5c0-1.788 1.486-3.25 3.302-3.25h33.016c1.816 0 3.302 1.462 3.302 3.25v19.5z"/><path fill="none" stroke="#005484" stroke-width="1.238" stroke-miterlimit="10" d="M76.122 187.397a6.585 6.585 0 0 0-4.952 2.245 6.652 6.652 0 0 1 .001 0 6.585 6.585 0 0 0-4.952-2.245 6.603 6.603 0 0 0 0 13.206 6.585 6.585 0 0 0 4.952-2.245 6.581 6.581 0 0 0 4.952 2.245 6.604 6.604 0 0 0-.001-13.206zm-3.347 5.943c.022.209.041.418.043.633-.001-.216-.038-.423-.059-.633h.016zm-.284-1.321c-.012-.037-.02-.076-.032-.112.013.038.03.074.042.112h-.01zm-.566-1.321c.136.234.252.481.357.734a6.665 6.665 0 0 0-.362-.734h.005zm-1.505 0a6.582 6.582 0 0 1 0 0zm-.8 2.213c.011-.066.018-.134.031-.2v.001c-.013.065-.019.132-.031.199zm-.039.429c-.022.22-.061.435-.061.66s.039.441.061.66c-.022-.22-.061-.435-.061-.66s.038-.441.061-.66zm.069 1.944c-.012-.061-.018-.123-.029-.185.011.061.017.124.029.185zm.199.697a6.582 6.582 0 0 1 0 0zm.587 1.351a6.603 6.603 0 0 1 0 0zm1.483-.03c.142-.244.266-.5.377-.762-.11.262-.232.518-.373.762h-.004zm.52-1.139c.021-.059.033-.122.052-.182h.017c-.02.062-.048.12-.069.182zm.32-1.503c.022-.214.059-.423.06-.643a6.815 6.815 0 0 1-.034.643h-.026z"/><g fill="#DC5665"><path d="M71.17 189.642a6.585 6.585 0 0 0-4.952-2.245 6.603 6.603 0 0 0 0 13.206 6.582 6.582 0 0 0 4.952-2.246c-1.025-1.163-1.651-2.684-1.651-4.357s.626-3.195 1.651-4.358z"/><path d="M71.17 189.642c-1.025 1.163-1.651 2.686-1.651 4.358s.626 3.194 1.651 4.357c1.025-1.163 1.651-2.684 1.651-4.357s-.626-3.195-1.651-4.358z"/></g><path fill="#FFAA79" d="M76.122 187.397a6.585 6.585 0 0 0-5.707 3.302h1.511c.24.413.427.858.575 1.321h-2.67a6.568 6.568 0 0 0-.277 1.321h3.222c.022.218.045.436.045.66 0 .223-.013.443-.035.66h-3.232c.046.456.143.896.277 1.321h2.678a6.628 6.628 0 0 1-.585 1.321h-1.509a6.582 6.582 0 0 0 5.707 3.302 6.605 6.605 0 0 0 0-13.208z"/></g><path fill="#FFF" d="M40.03 186.339v17.965c0 1.854-1.517 2.696-3.37 2.696H4.303c-1.854 0-3.37-.843-3.37-2.696v-17.965"/><path fill="#FFAA79" d="M40.03 200.933v3.37c0 1.854-1.517 2.696-3.37 2.696H4.303c-1.854 0-3.37-.843-3.37-2.696v-3.37"/><path fill="#3C7491" d="M.933 187.451v-3.37c0-1.854 1.517-3.081 3.37-3.081H36.66c1.854 0 3.37 1.227 3.37 3.081v3.37"/><g fill="#3C7491"><path d="M17.214 198.899h-2.492l1.558-9.049h2.492zM12.625 189.85l-2.376 6.223-.281-1.34v.001l-.839-4.069s-.101-.815-1.182-.815H4.019l-.046.153s1.202.236 2.607 1.035l2.165 7.86h2.597l3.965-9.048h-2.682zM32.23 198.899h2.288l-1.995-9.048h-2.004c-.925 0-1.151.674-1.151.674l-3.717 8.374h2.598l.52-1.344h3.169l.292 1.344zm-2.743-3.201l1.31-3.386.737 3.386h-2.047zM25.846 192.026l.356-1.943s-1.098-.394-2.242-.394c-1.237 0-4.174.511-4.174 2.995 0 2.338 3.447 2.367 3.447 3.594 0 1.227-3.092 1.008-4.112.234l-.371 2.031s1.113.511 2.814.511 4.267-.833 4.267-3.098c0-2.352-3.478-2.572-3.478-3.594-.001-1.023 2.426-.891 3.493-.336z"/></g><path fill="#FFAA79" d="M9.968 194.734l-.839-4.069s-.101-.815-1.182-.815H4.019l-.046.153s1.888.37 3.699 1.755c1.732 1.325 2.296 2.976 2.296 2.976z"/></g><g><g opacity=".25"><path fill="#4B8FB2" d="M141.619 233.571c0 1.773-1.486 3.224-3.302 3.224h-33.016c-1.816 0-3.302-1.451-3.302-3.224v-19.346c0-1.773 1.486-3.224 3.302-3.224h33.016c1.816 0 3.302 1.451 3.302 3.224v19.346z"/><g fill="none" stroke="#E5E5E5" stroke-width="2.291" stroke-linecap="round" stroke-linejoin="round" stroke-miterlimit="10"><path d="M112.147 227.379l-.355-1.351h-2.342l-.365 1.351h-2.14l2.352-7.237h2.598l2.38 7.237h-2.128zm-.759-2.949l-.311-1.183c-.073-.262-.16-.602-.264-1.02-.103-.418 1.4-1.235-.193-1.217s-.1.764-.187 1.148c-.087.384-.28 1.142-.579 2.272h1.534zM118.196 227.379l-1.474-5.192h-.044c.069.884.103 1.57.103 2.061v3.13h-1.725v-7.208h2.592l1.504 5.118h.04l1.473-5.118h2.599v7.208h-1.79v-3.16c0-.164.003-.346.008-.547.005-.201.027-.692.067-1.474h-.044l-1.455 5.182h-1.854zM128.894 227.379h-4.279v-7.208h4.279v1.563h-2.333v1.134h2.16v1.563h-2.16v1.361h2.333v1.587zM136.648 227.379h-2.252l-1.406-2.252-1.389 2.252h-2.204l2.39-3.687-2.248-3.52h2.16L133 222.4l1.251-2.228h2.223l-2.282 3.673 2.456 3.534z"/></g><g fill="#3B7491"><path d="M112.147 227.379l-.355-1.351h-2.342l-.365 1.351h-2.14l2.352-7.237h2.598l2.38 7.237h-2.128zm-.759-2.949l-.311-1.183c-.073-.262-.16-.602-.264-1.02a17.795 17.795 0 0 1-.205-.897c-.029.168-.088.443-.175.828-.087.384-.28 1.142-.579 2.272h1.534zM118.196 227.379l-1.474-5.192h-.044c.069.884.103 1.57.103 2.061v3.13h-1.725v-7.208h2.592l1.504 5.118h.04l1.473-5.118h2.599v7.208h-1.79v-3.16c0-.164.003-.346.008-.547.005-.201.027-.692.067-1.474h-.044l-1.455 5.182h-1.854zM128.894 227.379h-4.279v-7.208h4.279v1.563h-2.333v1.134h2.16v1.563h-2.16v1.361h2.333v1.587zM136.648 227.379h-2.252l-1.406-2.252-1.389 2.252h-2.204l2.39-3.687-2.248-3.52h2.16L133 222.4l1.251-2.228h2.223l-2.282 3.673 2.456 3.534z"/></g></g><path fill="#3C7491" d="M90.979 233.75c0 1.788-1.486 3.25-3.302 3.25H54.662c-1.816 0-3.302-1.462-3.302-3.25v-19.5c0-1.788 1.486-3.25 3.302-3.25h33.016c1.816 0 3.302 1.462 3.302 3.25v19.5z"/><path fill="none" stroke="#005484" stroke-width="1.238" stroke-miterlimit="10" d="M76.122 217.397a6.585 6.585 0 0 0-4.952 2.245 6.652 6.652 0 0 1 .001 0 6.585 6.585 0 0 0-4.952-2.245 6.603 6.603 0 0 0 0 13.206 6.585 6.585 0 0 0 4.952-2.245 6.581 6.581 0 0 0 4.952 2.245 6.604 6.604 0 0 0-.001-13.206zm-3.347 5.943c.022.209.041.418.043.633-.001-.216-.038-.423-.059-.633h.016zm-.284-1.321c-.012-.037-.02-.076-.032-.112.013.038.03.074.042.112h-.01zm-.566-1.321c.136.234.252.481.357.734a6.665 6.665 0 0 0-.362-.734h.005zm-1.505 0a6.582 6.582 0 0 1 0 0zm-.8 2.213c.011-.066.018-.134.031-.2v.001c-.013.065-.019.132-.031.199zm-.039.429c-.022.22-.061.435-.061.66s.039.441.061.66c-.022-.22-.061-.435-.061-.66s.038-.441.061-.66zm.069 1.944c-.012-.061-.018-.123-.029-.185.011.061.017.124.029.185zm.199.697a6.582 6.582 0 0 1 0 0zm.587 1.351a6.603 6.603 0 0 1 0 0zm1.483-.03c.142-.244.266-.5.377-.762-.11.262-.232.518-.373.762h-.004zm.52-1.139c.021-.059.033-.122.052-.182h.017c-.02.062-.048.12-.069.182zm.32-1.503c.022-.214.059-.423.06-.643a6.815 6.815 0 0 1-.034.643h-.026z"/><g fill="#DC5665"><path d="M71.17 219.642a6.585 6.585 0 0 0-4.952-2.245 6.603 6.603 0 0 0 0 13.206 6.582 6.582 0 0 0 4.952-2.246c-1.025-1.163-1.651-2.684-1.651-4.357s.626-3.195 1.651-4.358z"/><path d="M71.17 219.642c-1.025 1.163-1.651 2.686-1.651 4.358s.626 3.194 1.651 4.357c1.025-1.163 1.651-2.684 1.651-4.357s-.626-3.195-1.651-4.358z"/></g><path fill="#FFAA79" d="M76.122 217.397a6.585 6.585 0 0 0-5.707 3.302h1.511c.24.413.427.858.575 1.321h-2.67a6.568 6.568 0 0 0-.277 1.321h3.222c.022.218.045.436.045.66 0 .223-.013.443-.035.66h-3.232c.046.456.143.896.277 1.321h2.678a6.628 6.628 0 0 1-.585 1.321h-1.509a6.582 6.582 0 0 0 5.707 3.302 6.605 6.605 0 0 0 0-13.208z"/><g opacity=".25"><path fill="#FFF" d="M40.03 216.339v17.965c0 1.854-1.517 2.696-3.37 2.696H4.303c-1.854 0-3.37-.843-3.37-2.696v-17.965"/><path fill="#FFAA79" d="M40.03 230.933v3.37c0 1.854-1.517 2.696-3.37 2.696H4.303c-1.854 0-3.37-.843-3.37-2.696v-3.37"/><path fill="#3C7491" d="M.933 217.451v-3.37c0-1.854 1.517-3.081 3.37-3.081H36.66c1.854 0 3.37 1.227 3.37 3.081v3.37"/><g fill="#3C7491"><path d="M17.214 228.899h-2.492l1.558-9.049h2.492zM12.625 219.85l-2.376 6.223-.281-1.34v.001l-.839-4.069s-.101-.815-1.182-.815H4.019l-.046.153s1.202.236 2.607 1.035l2.165 7.86h2.597l3.965-9.048h-2.682zM32.23 228.899h2.288l-1.995-9.048h-2.004c-.925 0-1.151.674-1.151.674l-3.717 8.374h2.598l.52-1.344h3.169l.292 1.344zm-2.743-3.201l1.31-3.386.737 3.386h-2.047zM25.846 222.026l.356-1.943s-1.098-.394-2.242-.394c-1.237 0-4.174.511-4.174 2.995 0 2.338 3.447 2.367 3.447 3.594 0 1.227-3.092 1.008-4.112.234l-.371 2.031s1.113.511 2.814.511 4.267-.833 4.267-3.098c0-2.352-3.478-2.572-3.478-3.594-.001-1.023 2.426-.891 3.493-.336z"/></g><path fill="#FFAA79" d="M9.968 224.734l-.839-4.069s-.101-.815-1.182-.815H4.019l-.046.153s1.888.37 3.699 1.755c1.732 1.325 2.296 2.976 2.296 2.976z"/></g></g><g><path fill="#4B8FB2" d="M141.619 263.576c0 1.773-1.486 3.224-3.302 3.224h-33.016c-1.816 0-3.302-1.451-3.302-3.224V244.23c0-1.773 1.486-3.224 3.302-3.224h33.016c1.816 0 3.302 1.451 3.302 3.224v19.346z"/><g fill="none" stroke="#E5E5E5" stroke-width="2.291" stroke-linecap="round" stroke-linejoin="round" stroke-miterlimit="10"><path d="M112.147 257.384l-.355-1.351h-2.342l-.365 1.351h-2.14l2.352-7.237h2.598l2.38 7.237h-2.128zm-.759-2.949l-.311-1.183c-.073-.263-.16-.602-.264-1.02-.103-.418 1.4-1.235-.193-1.217-1.593.018-.1.764-.187 1.148s-.28 1.142-.579 2.272h1.534zM118.196 257.384l-1.474-5.192h-.044c.069.884.103 1.57.103 2.061v3.13h-1.725v-7.208h2.592l1.504 5.118h.04l1.473-5.118h2.599v7.208h-1.79v-3.16c0-.164.003-.346.008-.547s.027-.692.067-1.474h-.044l-1.455 5.182h-1.854zM128.894 257.384h-4.279v-7.208h4.279v1.563h-2.333v1.134h2.16v1.563h-2.16v1.361h2.333v1.587zM136.648 257.384h-2.252l-1.406-2.252-1.389 2.252h-2.204l2.39-3.687-2.248-3.52h2.16l1.302 2.228 1.251-2.228h2.223l-2.282 3.673 2.455 3.534z"/></g><g fill="#3B7491"><path d="M112.147 257.384l-.355-1.351h-2.342l-.365 1.351h-2.14l2.352-7.237h2.598l2.38 7.237h-2.128zm-.759-2.949l-.311-1.183c-.073-.263-.16-.602-.264-1.02a17.795 17.795 0 0 1-.205-.897c-.029.168-.088.443-.175.828s-.28 1.142-.579 2.272h1.534zM118.196 257.384l-1.474-5.192h-.044c.069.884.103 1.57.103 2.061v3.13h-1.725v-7.208h2.592l1.504 5.118h.04l1.473-5.118h2.599v7.208h-1.79v-3.16c0-.164.003-.346.008-.547s.027-.692.067-1.474h-.044l-1.455 5.182h-1.854zM128.894 257.384h-4.279v-7.208h4.279v1.563h-2.333v1.134h2.16v1.563h-2.16v1.361h2.333v1.587zM136.648 257.384h-2.252l-1.406-2.252-1.389 2.252h-2.204l2.39-3.687-2.248-3.52h2.16l1.302 2.228 1.251-2.228h2.223l-2.282 3.673 2.455 3.534z"/></g><g opacity=".25"><path fill="#3C7491" d="M90.979 263.755c0 1.788-1.486 3.25-3.302 3.25H54.662c-1.816 0-3.302-1.462-3.302-3.25v-19.5c0-1.788 1.486-3.25 3.302-3.25h33.016c1.816 0 3.302 1.462 3.302 3.25v19.5z"/><path fill="none" stroke="#005484" stroke-width="1.238" stroke-miterlimit="10" d="M76.122 247.402a6.585 6.585 0 0 0-4.952 2.245 6.652 6.652 0 0 1 .001 0 6.585 6.585 0 0 0-4.952-2.245 6.603 6.603 0 0 0 0 13.206 6.585 6.585 0 0 0 4.952-2.245 6.581 6.581 0 0 0 4.952 2.245 6.604 6.604 0 0 0-.001-13.206zm-3.347 5.943c.022.209.041.418.043.633-.001-.216-.038-.423-.059-.633h.016zm-.284-1.321c-.012-.037-.02-.076-.032-.112.013.038.03.074.042.112h-.01zm-.566-1.321c.136.234.252.481.357.734a6.665 6.665 0 0 0-.362-.734h.005zm-1.505 0a6.582 6.582 0 0 1 0 0zm-.8 2.213c.011-.066.018-.134.031-.2v.001c-.013.065-.019.132-.031.199zm-.039.429c-.022.22-.061.435-.061.66 0 .226.039.441.061.66-.022-.22-.061-.435-.061-.66-.001-.226.038-.441.061-.66zm.069 1.944c-.012-.061-.018-.123-.029-.185.011.061.017.124.029.185zm.199.697a6.582 6.582 0 0 1 0 0zm.587 1.351a6.603 6.603 0 0 1 0 0zm1.483-.031c.142-.244.266-.5.377-.762-.11.262-.232.518-.373.762h-.004zm.52-1.138c.021-.059.033-.122.052-.182h.017c-.02.062-.048.12-.069.182zm.32-1.503c.022-.214.059-.423.06-.643a6.815 6.815 0 0 1-.034.643h-.026z"/><g fill="#DC5665"><path d="M71.17 249.647a6.585 6.585 0 0 0-4.952-2.245 6.603 6.603 0 0 0 0 13.206 6.582 6.582 0 0 0 4.952-2.246 6.564 6.564 0 0 1-1.651-4.357c0-1.673.626-3.195 1.651-4.358z"/><path d="M71.17 249.647a6.568 6.568 0 0 0-1.651 4.358c0 1.673.626 3.194 1.651 4.357a6.564 6.564 0 0 0 1.651-4.357 6.566 6.566 0 0 0-1.651-4.358z"/></g><path fill="#FFAA79" d="M76.122 247.402a6.585 6.585 0 0 0-5.707 3.302h1.511c.24.413.427.858.575 1.321h-2.67a6.568 6.568 0 0 0-.277 1.321h3.222c.022.218.045.436.045.66 0 .223-.013.443-.035.66h-3.232c.046.456.143.896.277 1.321h2.678a6.628 6.628 0 0 1-.585 1.321h-1.509a6.582 6.582 0 0 0 5.707 3.302 6.605 6.605 0 0 0 0-13.208z"/></g><g opacity=".25"><path fill="#FFF" d="M40.03 246.344v17.965c0 1.854-1.517 2.696-3.37 2.696H4.303c-1.854 0-3.37-.843-3.37-2.696v-17.965"/><path fill="#FFAA79" d="M40.03 260.938v3.37c0 1.854-1.517 2.696-3.37 2.696H4.303c-1.854 0-3.37-.843-3.37-2.696v-3.37"/><path fill="#3C7491" d="M.933 247.456v-3.37c0-1.854 1.517-3.081 3.37-3.081H36.66c1.854 0 3.37 1.227 3.37 3.081v3.37"/><g fill="#3C7491"><path d="M17.214 258.903h-2.492l1.558-9.048h2.492zM12.625 249.855l-2.376 6.223-.281-1.34v.001l-.838-4.069s-.101-.815-1.182-.815H4.019l-.046.153s1.202.236 2.607 1.035l2.165 7.86h2.597l3.965-9.048h-2.682zM32.23 258.903h2.288l-1.995-9.048h-2.004c-.925 0-1.151.674-1.151.674l-3.717 8.374h2.598l.52-1.344h3.169l.292 1.344zm-2.743-3.2l1.31-3.386.737 3.386h-2.047zM25.846 252.031l.356-1.943s-1.098-.395-2.242-.395c-1.237 0-4.174.511-4.174 2.995 0 2.338 3.447 2.367 3.447 3.594 0 1.227-3.092 1.008-4.112.234l-.371 2.031s1.113.511 2.814.511 4.267-.833 4.267-3.098c0-2.352-3.478-2.572-3.478-3.594-.001-1.022 2.426-.89 3.493-.335z"/></g><path fill="#FFAA79" d="M9.968 254.739l-.838-4.069s-.101-.815-1.182-.815H4.019l-.046.153s1.888.37 3.699 1.755c1.732 1.325 2.296 2.976 2.296 2.976z"/></g></g><g><path opacity=".43" fill="none" stroke="#FFAA79" stroke-width="2.439" stroke-miterlimit="10" d="M141.37 23.915a3.261 3.261 0 0 1-3.252 3.252h-32.52a3.261 3.261 0 0 1-3.252-3.252V4.403a3.261 3.261 0 0 1 3.252-3.252h32.52a3.261 3.261 0 0 1 3.252 3.252v19.512z"/><path fill="#FCF6F2" d="M141.37 23.94a3.261 3.261 0 0 1-3.252 3.252h-32.52a3.261 3.261 0 0 1-3.252-3.252V4.428a3.261 3.261 0 0 1 3.252-3.252h32.52a3.261 3.261 0 0 1 3.252 3.252V23.94z"/><path fill="#FFAA79" d="M141.37 19.062v4.878c0 .447-.092.874-.257 1.262a3.285 3.285 0 0 1-1.733 1.733 3.23 3.23 0 0 1-1.262.257h-29.212l32.464-8.13z"/><path fill="#414042" d="M108.928 14.135c0 .872-.248 1.539-.743 2.002-.497.463-1.213.695-2.15.695h-1.5v-5.293h1.661c.865 0 1.535.229 2.012.685.481.456.72 1.093.72 1.911zm-1.165.029c0-1.137-.503-1.705-1.505-1.705h-.598v3.445h.482c1.08.002 1.621-.579 1.621-1.74zM109.877 16.832v-5.293h1.122v5.293h-1.122zM115.457 15.362c0 .479-.171.854-.517 1.13-.344.275-.822.414-1.435.414-.564 0-1.065-.107-1.5-.318v-1.043c.358.161.66.271.907.338.247.064.474.097.679.097.245 0 .435-.048.566-.141a.488.488 0 0 0 .197-.419.46.46 0 0 0-.088-.277.92.92 0 0 0-.256-.234 6.573 6.573 0 0 0-.685-.358c-.323-.152-.565-.299-.728-.438a1.59 1.59 0 0 1-.387-.489 1.395 1.395 0 0 1-.144-.652c0-.468.158-.836.476-1.104.318-.269.756-.402 1.317-.402.275 0 .538.032.787.097.25.064.511.157.784.275l-.362.872a5.233 5.233 0 0 0-.702-.243 2.306 2.306 0 0 0-.545-.069c-.213 0-.377.049-.489.149a.488.488 0 0 0-.171.387c0 .099.023.184.069.259a.757.757 0 0 0 .219.213c.1.069.338.192.712.371.494.237.833.474 1.018.712.186.236.278.528.278.873zM118.664 12.397c-.423 0-.749.16-.981.476-.233.317-.347.761-.347 1.327 0 1.179.443 1.77 1.328 1.77.372 0 .82-.09 1.351-.278v.941c-.435.182-.92.271-1.456.271-.77 0-1.359-.235-1.767-.702-.408-.466-.611-1.137-.611-2.011 0-.551.101-1.033.302-1.446.199-.416.488-.732.863-.952.377-.221.816-.331 1.32-.331.514 0 1.032.124 1.549.373l-.362.912a6.075 6.075 0 0 0-.598-.246 1.788 1.788 0 0 0-.591-.104zM128.999 11.539h1.133l-1.798 5.293h-1.224l-1.795-5.293h1.134l.996 3.15c.055.187.114.402.172.651.057.248.095.418.11.515.026-.222.117-.608.271-1.166l1.001-3.15zM133.846 16.832h-3.049v-5.293h3.049v.92h-1.927v1.162h1.794v.919h-1.794v1.364h1.927v.928zM136.073 14.801v2.031h-1.122v-5.293h1.542c.719 0 1.251.13 1.597.393.344.262.518.658.518 1.193 0 .311-.086.589-.257.831a1.702 1.702 0 0 1-.727.571 209.984 209.984 0 0 0 1.556 2.305h-1.246L136.67 14.8l-.597.001zm0-.912h.363c.354 0 .617-.059.785-.177.168-.119.253-.305.253-.558 0-.251-.087-.429-.259-.536-.172-.107-.439-.159-.801-.159h-.343l.002 1.43z"/><circle fill="#FFAA79" cx="122.785" cy="14.186" r="2.647"/><g><path fill="#4B8FB2" d="M192.356 23.571c0 1.773-1.486 3.224-3.302 3.224h-33.016c-1.816 0-3.302-1.451-3.302-3.224V4.224c0-1.773 1.486-3.224 3.302-3.224h33.016c1.816 0 3.302 1.451 3.302 3.224v19.347z"/><g fill="none" stroke="#E5E5E5" stroke-width="2.291" stroke-linecap="round" stroke-linejoin="round" stroke-miterlimit="10"><path d="M162.883 17.379l-.355-1.351h-2.342l-.365 1.351h-2.14l2.352-7.237h2.598l2.38 7.237h-2.128zm-.758-2.949l-.311-1.183c-.073-.263-.16-.602-.264-1.02-.103-.418 1.4-1.235-.193-1.217-1.593.018-.1.764-.187 1.148-.087.384-.28 1.142-.579 2.272h1.534zM168.932 17.379l-1.474-5.192h-.044c.069.884.103 1.57.103 2.061v3.13h-1.725V10.17h2.592l1.504 5.118h.04l1.473-5.118H174v7.208h-1.79v-3.16c0-.164.003-.346.008-.547s.027-.692.067-1.474h-.044l-1.455 5.182h-1.854zM179.63 17.379h-4.279v-7.208h4.279v1.563h-2.333v1.134h2.16v1.563h-2.16v1.361h2.333v1.587zM187.385 17.379h-2.252l-1.406-2.252-1.389 2.252h-2.204l2.39-3.687-2.248-3.52h2.16l1.302 2.228 1.251-2.228h2.223l-2.282 3.673 2.455 3.534z"/></g><g fill="#3B7491"><path d="M162.883 17.379l-.355-1.351h-2.342l-.365 1.351h-2.14l2.352-7.237h2.598l2.38 7.237h-2.128zm-.758-2.949l-.311-1.183c-.073-.263-.16-.602-.264-1.02a17.795 17.795 0 0 1-.205-.897c-.029.168-.088.443-.175.828-.087.384-.28 1.142-.579 2.272h1.534zM168.932 17.379l-1.474-5.192h-.044c.069.884.103 1.57.103 2.061v3.13h-1.725V10.17h2.592l1.504 5.118h.04l1.473-5.118H174v7.208h-1.79v-3.16c0-.164.003-.346.008-.547s.027-.692.067-1.474h-.044l-1.455 5.182h-1.854zM179.63 17.379h-4.279v-7.208h4.279v1.563h-2.333v1.134h2.16v1.563h-2.16v1.361h2.333v1.587zM187.385 17.379h-2.252l-1.406-2.252-1.389 2.252h-2.204l2.39-3.687-2.248-3.52h2.16l1.302 2.228 1.251-2.228h2.223l-2.282 3.673 2.455 3.534z"/></g></g><g><path fill="#3C7491" d="M90.979 23.75c0 1.788-1.486 3.25-3.302 3.25H54.662c-1.816 0-3.302-1.462-3.302-3.25V4.25c0-1.787 1.486-3.25 3.302-3.25h33.016c1.816 0 3.302 1.463 3.302 3.25v19.5z"/><path fill="none" stroke="#005484" stroke-width="1.238" stroke-miterlimit="10" d="M76.122 7.397a6.585 6.585 0 0 0-4.952 2.245 6.652 6.652 0 0 1 .001 0 6.585 6.585 0 0 0-4.952-2.245 6.603 6.603 0 0 0 0 13.206 6.585 6.585 0 0 0 4.952-2.245 6.581 6.581 0 0 0 4.952 2.245 6.604 6.604 0 0 0-.001-13.206zm-3.347 5.943c.022.209.041.418.043.633-.001-.216-.038-.422-.059-.633h.016zm-.284-1.321c-.012-.037-.02-.076-.032-.112.013.038.03.074.042.112h-.01zm-.566-1.321c.136.234.252.481.357.734a6.665 6.665 0 0 0-.362-.734h.005zm-1.505 0a6.582 6.582 0 0 1 0 0zm-.8 2.213c.011-.066.018-.134.031-.2v.001c-.013.065-.019.132-.031.199zm-.039.429c-.022.22-.061.435-.061.66s.039.441.061.66c-.022-.22-.061-.435-.061-.66s.038-.441.061-.66zm.069 1.944c-.012-.061-.018-.123-.029-.185.011.061.017.124.029.185zm.199.697a6.582 6.582 0 0 1 0 0zm.587 1.351a6.603 6.603 0 0 1 0 0zm1.483-.03c.142-.244.266-.5.377-.762-.11.262-.232.518-.373.762h-.004zm.52-1.139c.021-.059.033-.122.052-.182h.017c-.02.062-.048.12-.069.182zm.32-1.503c.022-.214.059-.423.06-.643a6.815 6.815 0 0 1-.034.643h-.026z"/><g fill="#DC5665"><path d="M71.17 9.642a6.585 6.585 0 0 0-4.952-2.245 6.603 6.603 0 0 0 0 13.206 6.582 6.582 0 0 0 4.952-2.246c-1.025-1.163-1.651-2.684-1.651-4.357s.626-3.195 1.651-4.358z"/><path d="M71.17 9.642c-1.025 1.163-1.651 2.686-1.651 4.358s.626 3.194 1.651 4.357c1.025-1.163 1.651-2.684 1.651-4.357s-.626-3.195-1.651-4.358z"/></g><path fill="#FFAA79" d="M76.122 7.397a6.585 6.585 0 0 0-5.707 3.302h1.511c.24.413.427.858.575 1.321h-2.67a6.568 6.568 0 0 0-.277 1.321h3.222c.022.218.045.436.045.66 0 .223-.013.443-.035.66h-3.232c.046.456.143.896.277 1.321h2.678a6.628 6.628 0 0 1-.585 1.321h-1.509a6.582 6.582 0 0 0 5.707 3.302 6.605 6.605 0 0 0 0-13.208z"/></g><g><path fill="#FFF" d="M40.03 6.339v17.965c0 1.854-1.517 2.696-3.37 2.696H4.303c-1.854 0-3.37-.843-3.37-2.696V6.339"/><path fill="#FFAA79" d="M40.03 20.933v3.37c0 1.854-1.517 2.696-3.37 2.696H4.303c-1.854 0-3.37-.843-3.37-2.696v-3.37"/><path fill="#3C7491" d="M.933 7.451v-3.37C.933 2.227 2.45 1 4.303 1H36.66c1.854 0 3.37 1.227 3.37 3.081v3.37"/><g fill="#3C7491"><path d="M17.214 18.899h-2.492L16.28 9.85h2.492zM12.625 9.85l-2.376 6.223-.281-1.34v.001l-.838-4.069s-.101-.815-1.182-.815H4.019l-.046.153s1.202.236 2.607 1.035l2.165 7.86h2.597l3.965-9.048h-2.682zM32.23 18.899h2.288L32.523 9.85h-2.004c-.925 0-1.151.674-1.151.674l-3.717 8.374h2.598l.52-1.344h3.169l.292 1.345zm-2.743-3.201l1.31-3.386.737 3.386h-2.047zM25.846 12.026l.356-1.943s-1.098-.394-2.242-.394c-1.237 0-4.174.511-4.174 2.995 0 2.338 3.447 2.367 3.447 3.594 0 1.227-3.092 1.008-4.112.234l-.371 2.031s1.113.511 2.814.511 4.267-.833 4.267-3.098c0-2.352-3.478-2.572-3.478-3.594-.001-1.023 2.426-.891 3.493-.336z"/></g><path fill="#FFAA79" d="M9.968 14.734l-.838-4.069s-.101-.815-1.182-.815H4.019l-.046.153s1.888.37 3.699 1.755c1.732 1.325 2.296 2.976 2.296 2.976z"/></g></g><g><g opacity=".25"><path opacity=".43" fill="none" stroke="#FFAA79" stroke-width="2.439" stroke-miterlimit="10" d="M141.37 53.915a3.261 3.261 0 0 1-3.252 3.252h-32.52a3.261 3.261 0 0 1-3.252-3.252V34.403a3.261 3.261 0 0 1 3.252-3.252h32.52a3.261 3.261 0 0 1 3.252 3.252v19.512z"/><path fill="#FCF6F2" d="M141.37 53.94a3.261 3.261 0 0 1-3.252 3.252h-32.52a3.261 3.261 0 0 1-3.252-3.252V34.428a3.261 3.261 0 0 1 3.252-3.252h32.52a3.261 3.261 0 0 1 3.252 3.252V53.94z"/><path fill="#FFAA79" d="M141.37 49.062v4.878c0 .447-.092.874-.257 1.262a3.296 3.296 0 0 1-1.733 1.733 3.23 3.23 0 0 1-1.262.257h-29.212l32.464-8.13z"/><path fill="#414042" d="M108.928 44.135c0 .872-.248 1.539-.743 2.002-.497.463-1.213.695-2.15.695h-1.5v-5.293h1.661c.865 0 1.535.229 2.012.685.481.456.72 1.093.72 1.911zm-1.165.029c0-1.137-.503-1.705-1.505-1.705h-.598v3.445h.482c1.08.002 1.621-.579 1.621-1.74zM109.877 46.832v-5.293h1.122v5.293h-1.122zM115.457 45.362c0 .479-.171.854-.517 1.13-.344.275-.822.414-1.435.414-.564 0-1.065-.107-1.5-.318v-1.043c.358.161.66.271.907.338.247.064.474.097.679.097.245 0 .435-.048.566-.141a.488.488 0 0 0 .197-.419.457.457 0 0 0-.088-.277.92.92 0 0 0-.256-.234 6.573 6.573 0 0 0-.685-.358c-.323-.152-.565-.299-.728-.438a1.59 1.59 0 0 1-.387-.489 1.395 1.395 0 0 1-.144-.652c0-.468.158-.836.476-1.104.318-.269.756-.402 1.317-.402.275 0 .538.032.787.097.25.064.511.157.784.275l-.362.872a5.233 5.233 0 0 0-.702-.243 2.306 2.306 0 0 0-.545-.069c-.213 0-.377.049-.489.149a.488.488 0 0 0-.171.387c0 .099.023.184.069.259a.757.757 0 0 0 .219.213c.1.069.338.192.712.371.494.237.833.474 1.018.712.186.236.278.528.278.873zM118.664 42.397c-.423 0-.749.16-.981.476-.233.317-.347.761-.347 1.327 0 1.179.443 1.77 1.328 1.77.372 0 .82-.09 1.351-.278v.941c-.435.182-.92.271-1.456.271-.77 0-1.359-.235-1.767-.702-.408-.466-.611-1.137-.611-2.011 0-.551.101-1.032.302-1.446.199-.416.488-.732.863-.952.377-.221.816-.331 1.32-.331.514 0 1.032.124 1.549.373l-.362.912a6.075 6.075 0 0 0-.598-.246 1.788 1.788 0 0 0-.591-.104zM128.999 41.539h1.133l-1.798 5.293h-1.224l-1.795-5.293h1.134l.996 3.15c.055.187.114.402.172.651.057.248.095.418.11.515.026-.222.117-.608.271-1.166l1.001-3.15zM133.846 46.832h-3.049v-5.293h3.049v.92h-1.927v1.162h1.794v.919h-1.794v1.364h1.927v.928zM136.073 44.801v2.031h-1.122v-5.293h1.542c.719 0 1.251.13 1.597.393.344.262.518.658.518 1.193 0 .311-.086.589-.257.831a1.702 1.702 0 0 1-.727.571 209.984 209.984 0 0 0 1.556 2.305h-1.246L136.67 44.8l-.597.001zm0-.912h.363c.354 0 .617-.059.785-.177.168-.119.253-.305.253-.558 0-.251-.087-.429-.259-.536-.172-.107-.439-.159-.801-.159h-.343l.002 1.43z"/><circle fill="#FFAA79" cx="122.785" cy="44.186" r="2.647"/></g><g opacity=".25"><path fill="#4B8FB2" d="M192.356 53.571c0 1.773-1.486 3.224-3.302 3.224h-33.016c-1.816 0-3.302-1.451-3.302-3.224V34.224c0-1.773 1.486-3.224 3.302-3.224h33.016c1.816 0 3.302 1.451 3.302 3.224v19.347z"/><g fill="none" stroke="#E5E5E5" stroke-width="2.291" stroke-linecap="round" stroke-linejoin="round" stroke-miterlimit="10"><path d="M162.883 47.379l-.355-1.351h-2.342l-.365 1.351h-2.14l2.352-7.237h2.598l2.38 7.237h-2.128zm-.758-2.949l-.311-1.183c-.073-.263-.16-.602-.264-1.02-.103-.418 1.4-1.235-.193-1.217-1.593.018-.1.764-.187 1.148-.087.384-.28 1.142-.579 2.272h1.534zM168.932 47.379l-1.474-5.192h-.044c.069.884.103 1.57.103 2.061v3.13h-1.725V40.17h2.592l1.504 5.118h.04l1.473-5.118H174v7.208h-1.79v-3.16c0-.164.003-.346.008-.547.005-.201.027-.692.067-1.474h-.044l-1.455 5.182h-1.854zM179.63 47.379h-4.279v-7.208h4.279v1.563h-2.333v1.134h2.16v1.563h-2.16v1.361h2.333v1.587zM187.385 47.379h-2.252l-1.406-2.252-1.389 2.252h-2.204l2.39-3.687-2.248-3.52h2.16l1.302 2.228 1.251-2.228h2.223l-2.282 3.673 2.455 3.534z"/></g><g fill="#3B7491"><path d="M162.883 47.379l-.355-1.351h-2.342l-.365 1.351h-2.14l2.352-7.237h2.598l2.38 7.237h-2.128zm-.758-2.949l-.311-1.183c-.073-.263-.16-.602-.264-1.02a17.795 17.795 0 0 1-.205-.897c-.029.168-.088.443-.175.828-.087.384-.28 1.142-.579 2.272h1.534zM168.932 47.379l-1.474-5.192h-.044c.069.884.103 1.57.103 2.061v3.13h-1.725V40.17h2.592l1.504 5.118h.04l1.473-5.118H174v7.208h-1.79v-3.16c0-.164.003-.346.008-.547.005-.201.027-.692.067-1.474h-.044l-1.455 5.182h-1.854zM179.63 47.379h-4.279v-7.208h4.279v1.563h-2.333v1.134h2.16v1.563h-2.16v1.361h2.333v1.587zM187.385 47.379h-2.252l-1.406-2.252-1.389 2.252h-2.204l2.39-3.687-2.248-3.52h2.16l1.302 2.228 1.251-2.228h2.223l-2.282 3.673 2.455 3.534z"/></g></g><g opacity=".25"><path fill="#3C7491" d="M90.979 53.75c0 1.787-1.486 3.25-3.302 3.25H54.662c-1.816 0-3.302-1.463-3.302-3.25v-19.5c0-1.787 1.486-3.25 3.302-3.25h33.016c1.816 0 3.302 1.463 3.302 3.25v19.5z"/><path fill="none" stroke="#005484" stroke-width="1.238" stroke-miterlimit="10" d="M76.122 37.397a6.585 6.585 0 0 0-4.952 2.245 6.652 6.652 0 0 1 .001 0 6.585 6.585 0 0 0-4.952-2.245 6.603 6.603 0 0 0 0 13.206 6.585 6.585 0 0 0 4.952-2.245 6.581 6.581 0 0 0 4.952 2.245 6.604 6.604 0 0 0-.001-13.206zm-3.347 5.943c.022.209.041.418.043.633-.001-.216-.038-.422-.059-.633h.016zm-.284-1.321c-.012-.037-.02-.076-.032-.112.013.038.03.074.042.112h-.01zm-.566-1.321c.136.234.252.481.357.734a6.665 6.665 0 0 0-.362-.734h.005zm-1.505 0a6.582 6.582 0 0 1 0 0zm-.8 2.213c.011-.066.018-.134.031-.2v.001c-.013.065-.019.132-.031.199zm-.039.429c-.022.22-.061.435-.061.66s.039.441.061.66c-.022-.22-.061-.435-.061-.66s.038-.441.061-.66zm.069 1.944c-.012-.061-.018-.123-.029-.185.011.061.017.124.029.185zm.199.697a6.582 6.582 0 0 1 0 0zm.587 1.351a6.603 6.603 0 0 1 0 0zm1.483-.03c.142-.244.266-.5.377-.762-.11.262-.232.518-.373.762h-.004zm.52-1.139c.021-.059.033-.122.052-.182h.017c-.02.062-.048.12-.069.182zm.32-1.503c.022-.214.059-.423.06-.643a6.815 6.815 0 0 1-.034.643h-.026z"/><g fill="#DC5665"><path d="M71.17 39.642a6.585 6.585 0 0 0-4.952-2.245 6.603 6.603 0 0 0 0 13.206 6.582 6.582 0 0 0 4.952-2.246c-1.025-1.163-1.651-2.684-1.651-4.357s.626-3.195 1.651-4.358z"/><path d="M71.17 39.642c-1.025 1.163-1.651 2.686-1.651 4.358s.626 3.194 1.651 4.357c1.025-1.163 1.651-2.684 1.651-4.357s-.626-3.195-1.651-4.358z"/></g><path fill="#FFAA79" d="M76.122 37.397a6.585 6.585 0 0 0-5.707 3.302h1.511c.24.413.427.858.575 1.321h-2.67a6.568 6.568 0 0 0-.277 1.321h3.222c.022.218.045.436.045.66 0 .223-.013.443-.035.66h-3.232c.046.456.143.896.277 1.321h2.678a6.628 6.628 0 0 1-.585 1.321h-1.509a6.582 6.582 0 0 0 5.707 3.302 6.605 6.605 0 0 0 0-13.208z"/></g><path fill="#FFF" d="M40.03 36.339v17.965c0 1.854-1.517 2.696-3.37 2.696H4.303c-1.854 0-3.37-.843-3.37-2.696V36.339"/><path fill="#FFAA79" d="M40.03 50.933v3.37c0 1.854-1.517 2.696-3.37 2.696H4.303c-1.854 0-3.37-.843-3.37-2.696v-3.37"/><path fill="#3C7491" d="M.933 37.451v-3.37C.933 32.227 2.45 31 4.303 31H36.66c1.854 0 3.37 1.227 3.37 3.081v3.37"/><g fill="#3C7491"><path d="M17.214 48.899h-2.492l1.558-9.049h2.492zM12.625 39.85l-2.376 6.223-.281-1.34v.001l-.838-4.069s-.101-.815-1.182-.815H4.019l-.046.153s1.202.236 2.607 1.035l2.165 7.86h2.597l3.965-9.048h-2.682zM32.23 48.899h2.288l-1.995-9.048h-2.004c-.925 0-1.151.674-1.151.674l-3.717 8.374h2.598l.52-1.344h3.169l.292 1.344zm-2.743-3.201l1.31-3.386.737 3.386h-2.047zM25.846 42.026l.356-1.943s-1.098-.394-2.242-.394c-1.237 0-4.174.511-4.174 2.995 0 2.338 3.447 2.367 3.447 3.594 0 1.227-3.092 1.008-4.112.234l-.371 2.031s1.113.511 2.814.511 4.267-.833 4.267-3.098c0-2.352-3.478-2.572-3.478-3.594-.001-1.023 2.426-.891 3.493-.336z"/></g><path fill="#FFAA79" d="M9.968 44.734l-.838-4.069s-.101-.815-1.182-.815H4.019l-.046.153s1.888.37 3.699 1.755c1.732 1.325 2.296 2.976 2.296 2.976z"/></g><g><g opacity=".25"><path opacity=".43" fill="none" stroke="#FFAA79" stroke-width="2.439" stroke-miterlimit="10" d="M141.37 83.915a3.261 3.261 0 0 1-3.252 3.252h-32.52a3.261 3.261 0 0 1-3.252-3.252V64.403a3.261 3.261 0 0 1 3.252-3.252h32.52a3.261 3.261 0 0 1 3.252 3.252v19.512z"/><path fill="#FCF6F2" d="M141.37 83.94a3.261 3.261 0 0 1-3.252 3.252h-32.52a3.261 3.261 0 0 1-3.252-3.252V64.428a3.261 3.261 0 0 1 3.252-3.252h32.52a3.261 3.261 0 0 1 3.252 3.252V83.94z"/><path fill="#FFAA79" d="M141.37 79.062v4.878c0 .447-.092.874-.257 1.262a3.285 3.285 0 0 1-1.733 1.733 3.23 3.23 0 0 1-1.262.257h-29.212l32.464-8.13z"/><path fill="#414042" d="M108.928 74.135c0 .872-.248 1.539-.743 2.002-.497.463-1.213.695-2.15.695h-1.5v-5.293h1.661c.865 0 1.535.229 2.012.685.481.456.72 1.093.72 1.911zm-1.165.029c0-1.137-.503-1.705-1.505-1.705h-.598v3.445h.482c1.08.002 1.621-.579 1.621-1.74zM109.877 76.832v-5.293h1.122v5.293h-1.122zM115.457 75.362c0 .479-.171.854-.517 1.13-.344.275-.822.414-1.435.414-.564 0-1.065-.107-1.5-.318v-1.043c.358.161.66.271.907.338.247.064.474.097.679.097.245 0 .435-.048.566-.141a.488.488 0 0 0 .197-.419.457.457 0 0 0-.088-.277.92.92 0 0 0-.256-.234 6.573 6.573 0 0 0-.685-.358c-.323-.152-.565-.299-.728-.438a1.59 1.59 0 0 1-.387-.489 1.395 1.395 0 0 1-.144-.652c0-.468.158-.836.476-1.104.318-.269.756-.402 1.317-.402.275 0 .538.032.787.097.25.064.511.157.784.275l-.362.872a5.233 5.233 0 0 0-.702-.243 2.306 2.306 0 0 0-.545-.069c-.213 0-.377.049-.489.149a.488.488 0 0 0-.171.387c0 .099.023.184.069.259a.757.757 0 0 0 .219.213c.1.069.338.192.712.371.494.237.833.474 1.018.712.186.236.278.528.278.873zM118.664 72.397c-.423 0-.749.16-.981.476-.233.317-.347.761-.347 1.327 0 1.179.443 1.77 1.328 1.77.372 0 .82-.09 1.351-.278v.941c-.435.182-.92.271-1.456.271-.77 0-1.359-.235-1.767-.702-.408-.466-.611-1.137-.611-2.011 0-.551.101-1.033.302-1.446.199-.416.488-.732.863-.952.377-.221.816-.331 1.32-.331.514 0 1.032.124 1.549.373l-.362.912a6.075 6.075 0 0 0-.598-.246 1.788 1.788 0 0 0-.591-.104zM128.999 71.539h1.133l-1.798 5.293h-1.224l-1.795-5.293h1.134l.996 3.15c.055.187.114.402.172.651.057.248.095.418.11.515.026-.222.117-.608.271-1.166l1.001-3.15zM133.846 76.832h-3.049v-5.293h3.049v.92h-1.927v1.162h1.794v.919h-1.794v1.364h1.927v.928zM136.073 74.801v2.031h-1.122v-5.293h1.542c.719 0 1.251.13 1.597.393.344.262.518.658.518 1.193 0 .311-.086.589-.257.831a1.702 1.702 0 0 1-.727.571 209.984 209.984 0 0 0 1.556 2.305h-1.246L136.67 74.8l-.597.001zm0-.912h.363c.354 0 .617-.059.785-.177.168-.119.253-.305.253-.558 0-.251-.087-.429-.259-.536-.172-.107-.439-.159-.801-.159h-.343l.002 1.43z"/><circle fill="#FFAA79" cx="122.785" cy="74.186" r="2.647"/></g><g opacity=".25"><path fill="#4B8FB2" d="M192.356 83.571c0 1.773-1.486 3.224-3.302 3.224h-33.016c-1.816 0-3.302-1.451-3.302-3.224V64.224c0-1.773 1.486-3.224 3.302-3.224h33.016c1.816 0 3.302 1.451 3.302 3.224v19.347z"/><g fill="none" stroke="#E5E5E5" stroke-width="2.291" stroke-linecap="round" stroke-linejoin="round" stroke-miterlimit="10"><path d="M162.883 77.379l-.355-1.351h-2.342l-.365 1.351h-2.14l2.352-7.237h2.598l2.38 7.237h-2.128zm-.758-2.949l-.311-1.183c-.073-.263-.16-.602-.264-1.02-.103-.418 1.4-1.235-.193-1.217-1.593.018-.1.764-.187 1.148-.087.384-.28 1.142-.579 2.272h1.534zM168.932 77.379l-1.474-5.192h-.044c.069.884.103 1.57.103 2.061v3.13h-1.725V70.17h2.592l1.504 5.118h.04l1.473-5.118H174v7.208h-1.79v-3.16c0-.164.003-.346.008-.547s.027-.692.067-1.474h-.044l-1.455 5.182h-1.854zM179.63 77.379h-4.279v-7.208h4.279v1.563h-2.333v1.134h2.16v1.563h-2.16v1.361h2.333v1.587zM187.385 77.379h-2.252l-1.406-2.252-1.389 2.252h-2.204l2.39-3.687-2.248-3.52h2.16l1.302 2.228 1.251-2.228h2.223l-2.282 3.673 2.455 3.534z"/></g><g fill="#3B7491"><path d="M162.883 77.379l-.355-1.351h-2.342l-.365 1.351h-2.14l2.352-7.237h2.598l2.38 7.237h-2.128zm-.758-2.949l-.311-1.183c-.073-.263-.16-.602-.264-1.02a17.795 17.795 0 0 1-.205-.897c-.029.168-.088.443-.175.828-.087.384-.28 1.142-.579 2.272h1.534zM168.932 77.379l-1.474-5.192h-.044c.069.884.103 1.57.103 2.061v3.13h-1.725V70.17h2.592l1.504 5.118h.04l1.473-5.118H174v7.208h-1.79v-3.16c0-.164.003-.346.008-.547s.027-.692.067-1.474h-.044l-1.455 5.182h-1.854zM179.63 77.379h-4.279v-7.208h4.279v1.563h-2.333v1.134h2.16v1.563h-2.16v1.361h2.333v1.587zM187.385 77.379h-2.252l-1.406-2.252-1.389 2.252h-2.204l2.39-3.687-2.248-3.52h2.16l1.302 2.228 1.251-2.228h2.223l-2.282 3.673 2.455 3.534z"/></g></g><path fill="#3C7491" d="M90.979 83.75c0 1.787-1.486 3.25-3.302 3.25H54.662c-1.816 0-3.302-1.463-3.302-3.25v-19.5c0-1.787 1.486-3.25 3.302-3.25h33.016c1.816 0 3.302 1.463 3.302 3.25v19.5z"/><path fill="none" stroke="#005484" stroke-width="1.238" stroke-miterlimit="10" d="M76.122 67.397a6.585 6.585 0 0 0-4.952 2.245 6.652 6.652 0 0 1 .001 0 6.585 6.585 0 0 0-4.952-2.245 6.603 6.603 0 0 0 0 13.206 6.585 6.585 0 0 0 4.952-2.245 6.581 6.581 0 0 0 4.952 2.245 6.604 6.604 0 0 0-.001-13.206zm-3.347 5.943c.022.209.041.418.043.633-.001-.216-.038-.422-.059-.633h.016zm-.284-1.321c-.012-.037-.02-.076-.032-.112.013.038.03.074.042.112h-.01zm-.566-1.321c.136.234.252.481.357.734a6.665 6.665 0 0 0-.362-.734h.005zm-1.505 0a6.582 6.582 0 0 1 0 0zm-.8 2.213c.011-.066.018-.134.031-.2v.001c-.013.065-.019.132-.031.199zm-.039.429c-.022.22-.061.435-.061.66s.039.441.061.66c-.022-.22-.061-.435-.061-.66s.038-.441.061-.66zm.069 1.944c-.012-.061-.018-.123-.029-.185.011.061.017.124.029.185zm.199.697a6.582 6.582 0 0 1 0 0zm.587 1.351a6.603 6.603 0 0 1 0 0zm1.483-.03c.142-.244.266-.5.377-.762-.11.262-.232.518-.373.762h-.004zm.52-1.139c.021-.059.033-.122.052-.182h.017c-.02.062-.048.12-.069.182zm.32-1.503c.022-.214.059-.423.06-.643a6.815 6.815 0 0 1-.034.643h-.026z"/><g fill="#DC5665"><path d="M71.17 69.642a6.585 6.585 0 0 0-4.952-2.245 6.603 6.603 0 0 0 0 13.206 6.582 6.582 0 0 0 4.952-2.246c-1.025-1.163-1.651-2.684-1.651-4.357s.626-3.195 1.651-4.358z"/><path d="M71.17 69.642c-1.025 1.163-1.651 2.686-1.651 4.358s.626 3.194 1.651 4.357c1.025-1.163 1.651-2.684 1.651-4.357s-.626-3.195-1.651-4.358z"/></g><path fill="#FFAA79" d="M76.122 67.397a6.585 6.585 0 0 0-5.707 3.302h1.511c.24.413.427.858.575 1.321h-2.67a6.568 6.568 0 0 0-.277 1.321h3.222c.022.218.045.436.045.66 0 .223-.013.443-.035.66h-3.232c.046.456.143.896.277 1.321h2.678a6.628 6.628 0 0 1-.585 1.321h-1.509a6.582 6.582 0 0 0 5.707 3.302 6.605 6.605 0 0 0 0-13.208z"/><g opacity=".25"><path fill="#FFF" d="M40.03 66.339v17.965c0 1.854-1.517 2.696-3.37 2.696H4.303c-1.854 0-3.37-.843-3.37-2.696V66.339"/><path fill="#FFAA79" d="M40.03 80.933v3.37c0 1.854-1.517 2.696-3.37 2.696H4.303c-1.854 0-3.37-.843-3.37-2.696v-3.37"/><path fill="#3C7491" d="M.933 67.451v-3.37C.933 62.227 2.45 61 4.303 61H36.66c1.854 0 3.37 1.227 3.37 3.081v3.37"/><g fill="#3C7491"><path d="M17.214 78.899h-2.492l1.558-9.049h2.492zM12.625 69.85l-2.376 6.223-.281-1.34v.001l-.838-4.069s-.101-.815-1.182-.815H4.019l-.046.153s1.202.236 2.607 1.035l2.165 7.86h2.597l3.965-9.048h-2.682zM32.23 78.899h2.288l-1.995-9.048h-2.004c-.925 0-1.151.674-1.151.674l-3.717 8.374h2.598l.52-1.344h3.169l.292 1.344zm-2.743-3.201l1.31-3.386.737 3.386h-2.047zM25.846 72.026l.356-1.943s-1.098-.394-2.242-.394c-1.237 0-4.174.511-4.174 2.995 0 2.338 3.447 2.367 3.447 3.594 0 1.227-3.092 1.008-4.112.234l-.371 2.031s1.113.511 2.814.511 4.267-.833 4.267-3.098c0-2.352-3.478-2.572-3.478-3.594-.001-1.023 2.426-.891 3.493-.336z"/></g><path fill="#FFAA79" d="M9.968 74.734l-.838-4.069s-.101-.815-1.182-.815H4.019l-.046.153s1.888.37 3.699 1.755c1.732 1.325 2.296 2.976 2.296 2.976z"/></g></g><g><path opacity=".43" fill="none" stroke="#FFAA79" stroke-width="2.439" stroke-miterlimit="10" d="M141.37 113.915a3.261 3.261 0 0 1-3.252 3.252h-32.52a3.261 3.261 0 0 1-3.252-3.252V94.403a3.261 3.261 0 0 1 3.252-3.252h32.52a3.261 3.261 0 0 1 3.252 3.252v19.512z"/><path fill="#FCF6F2" d="M141.37 113.94a3.261 3.261 0 0 1-3.252 3.252h-32.52a3.261 3.261 0 0 1-3.252-3.252V94.428a3.261 3.261 0 0 1 3.252-3.252h32.52a3.261 3.261 0 0 1 3.252 3.252v19.512z"/><path fill="#FFAA79" d="M141.37 109.062v4.878c0 .447-.092.874-.257 1.262a3.285 3.285 0 0 1-1.733 1.733 3.23 3.23 0 0 1-1.262.257h-29.212l32.464-8.13z"/><path fill="#414042" d="M108.928 104.135c0 .872-.248 1.539-.743 2.002-.497.463-1.213.695-2.15.695h-1.5v-5.293h1.661c.865 0 1.535.229 2.012.685.481.456.72 1.093.72 1.911zm-1.165.029c0-1.137-.503-1.705-1.505-1.705h-.598v3.445h.482c1.08.002 1.621-.579 1.621-1.74zM109.877 106.832v-5.293h1.122v5.293h-1.122zM115.457 105.362c0 .479-.171.854-.517 1.13-.344.275-.822.414-1.435.414-.564 0-1.065-.107-1.5-.318v-1.043c.358.161.66.271.907.338.247.064.474.097.679.097.245 0 .435-.048.566-.141a.488.488 0 0 0 .197-.419.457.457 0 0 0-.088-.277.92.92 0 0 0-.256-.234 6.573 6.573 0 0 0-.685-.358c-.323-.152-.565-.299-.728-.438a1.59 1.59 0 0 1-.387-.489 1.395 1.395 0 0 1-.144-.652c0-.468.158-.836.476-1.104.318-.269.756-.402 1.317-.402.275 0 .538.032.787.097.25.064.511.157.784.275l-.362.872a5.233 5.233 0 0 0-.702-.243 2.306 2.306 0 0 0-.545-.069c-.213 0-.377.049-.489.149a.488.488 0 0 0-.171.387c0 .099.023.184.069.259a.757.757 0 0 0 .219.213c.1.069.338.192.712.371.494.237.833.474 1.018.712.186.236.278.528.278.873zM118.664 102.397c-.423 0-.749.16-.981.476-.233.317-.347.761-.347 1.327 0 1.179.443 1.77 1.328 1.77.372 0 .82-.09 1.351-.278v.941c-.435.182-.92.271-1.456.271-.77 0-1.359-.235-1.767-.702-.408-.466-.611-1.137-.611-2.011 0-.551.101-1.033.302-1.446.199-.416.488-.732.863-.952.377-.221.816-.331 1.32-.331.514 0 1.032.124 1.549.373l-.362.912a6.075 6.075 0 0 0-.598-.246 1.788 1.788 0 0 0-.591-.104zM128.999 101.539h1.133l-1.798 5.293h-1.224l-1.795-5.293h1.134l.996 3.15c.055.187.114.402.172.651.057.248.095.418.11.515.026-.222.117-.608.271-1.166l1.001-3.15zM133.846 106.832h-3.049v-5.293h3.049v.92h-1.927v1.162h1.794v.919h-1.794v1.364h1.927v.928zM136.073 104.801v2.031h-1.122v-5.293h1.542c.719 0 1.251.13 1.597.393.344.262.518.658.518 1.193 0 .311-.086.589-.257.831a1.702 1.702 0 0 1-.727.571 209.984 209.984 0 0 0 1.556 2.305h-1.246l-1.264-2.031h-.597zm0-.912h.363c.354 0 .617-.059.785-.177.168-.119.253-.305.253-.558 0-.251-.087-.429-.259-.536-.172-.107-.439-.159-.801-.159h-.343l.002 1.43z"/><circle fill="#FFAA79" cx="122.785" cy="104.186" r="2.647"/><g opacity=".25"><path fill="#4B8FB2" d="M192.356 113.571c0 1.773-1.486 3.224-3.302 3.224h-33.016c-1.816 0-3.302-1.451-3.302-3.224V94.224c0-1.773 1.486-3.224 3.302-3.224h33.016c1.816 0 3.302 1.451 3.302 3.224v19.347z"/><g fill="none" stroke="#E5E5E5" stroke-width="2.291" stroke-linecap="round" stroke-linejoin="round" stroke-miterlimit="10"><path d="M162.883 107.379l-.355-1.351h-2.342l-.365 1.351h-2.14l2.352-7.237h2.598l2.38 7.237h-2.128zm-.758-2.949l-.311-1.183c-.073-.263-.16-.602-.264-1.02-.103-.418 1.4-1.235-.193-1.217-1.593.018-.1.764-.187 1.148-.087.384-.28 1.142-.579 2.272h1.534zM168.932 107.379l-1.474-5.192h-.044c.069.884.103 1.57.103 2.061v3.13h-1.725v-7.208h2.592l1.504 5.118h.04l1.473-5.118H174v7.208h-1.79v-3.16c0-.164.003-.346.008-.547s.027-.692.067-1.474h-.044l-1.455 5.182h-1.854zM179.63 107.379h-4.279v-7.208h4.279v1.563h-2.333v1.134h2.16v1.563h-2.16v1.361h2.333v1.587zM187.385 107.379h-2.252l-1.406-2.252-1.389 2.252h-2.204l2.39-3.687-2.248-3.52h2.16l1.302 2.228 1.251-2.228h2.223l-2.282 3.673 2.455 3.534z"/></g><g fill="#3B7491"><path d="M162.883 107.379l-.355-1.351h-2.342l-.365 1.351h-2.14l2.352-7.237h2.598l2.38 7.237h-2.128zm-.758-2.949l-.311-1.183c-.073-.263-.16-.602-.264-1.02a17.795 17.795 0 0 1-.205-.897c-.029.168-.088.443-.175.828-.087.384-.28 1.142-.579 2.272h1.534zM168.932 107.379l-1.474-5.192h-.044c.069.884.103 1.57.103 2.061v3.13h-1.725v-7.208h2.592l1.504 5.118h.04l1.473-5.118H174v7.208h-1.79v-3.16c0-.164.003-.346.008-.547s.027-.692.067-1.474h-.044l-1.455 5.182h-1.854zM179.63 107.379h-4.279v-7.208h4.279v1.563h-2.333v1.134h2.16v1.563h-2.16v1.361h2.333v1.587zM187.385 107.379h-2.252l-1.406-2.252-1.389 2.252h-2.204l2.39-3.687-2.248-3.52h2.16l1.302 2.228 1.251-2.228h2.223l-2.282 3.673 2.455 3.534z"/></g></g><g opacity=".25"><path fill="#3C7491" d="M90.979 113.75c0 1.787-1.486 3.25-3.302 3.25H54.662c-1.816 0-3.302-1.463-3.302-3.25v-19.5c0-1.787 1.486-3.25 3.302-3.25h33.016c1.816 0 3.302 1.463 3.302 3.25v19.5z"/><path fill="none" stroke="#005484" stroke-width="1.238" stroke-miterlimit="10" d="M76.122 97.397a6.585 6.585 0 0 0-4.952 2.245 6.652 6.652 0 0 1 .001 0 6.585 6.585 0 0 0-4.952-2.245 6.603 6.603 0 0 0 0 13.206 6.585 6.585 0 0 0 4.952-2.245 6.581 6.581 0 0 0 4.952 2.245 6.604 6.604 0 0 0-.001-13.206zm-3.347 5.943c.022.209.041.418.043.633-.001-.216-.038-.422-.059-.633h.016zm-.284-1.321c-.012-.037-.02-.076-.032-.112.013.038.03.074.042.112h-.01zm-.566-1.321c.136.234.252.481.357.734a6.665 6.665 0 0 0-.362-.734h.005zm-1.505 0a6.582 6.582 0 0 1 0 0zm-.8 2.213c.011-.067.018-.134.031-.2v.001c-.013.065-.019.132-.031.199zm-.039.429c-.022.22-.061.435-.061.66 0 .226.039.441.061.66-.022-.22-.061-.435-.061-.66-.001-.226.038-.441.061-.66zm.069 1.944c-.012-.061-.018-.123-.029-.185.011.061.017.124.029.185zm.199.697a6.582 6.582 0 0 1 0 0zm.587 1.351a6.603 6.603 0 0 1 0 0zm1.483-.03c.142-.244.266-.5.377-.762-.11.262-.232.518-.373.762h-.004zm.52-1.139c.021-.059.033-.122.052-.182h.017c-.02.062-.048.12-.069.182zm.32-1.503c.022-.214.059-.423.06-.643a6.815 6.815 0 0 1-.034.643h-.026z"/><g fill="#DC5665"><path d="M71.17 99.642a6.585 6.585 0 0 0-4.952-2.245 6.603 6.603 0 0 0 0 13.206 6.582 6.582 0 0 0 4.952-2.246c-1.025-1.163-1.651-2.684-1.651-4.357s.626-3.195 1.651-4.358z"/><path d="M71.17 99.642c-1.025 1.163-1.651 2.686-1.651 4.358s.626 3.194 1.651 4.357c1.025-1.163 1.651-2.684 1.651-4.357s-.626-3.195-1.651-4.358z"/></g><path fill="#FFAA79" d="M76.122 97.397a6.585 6.585 0 0 0-5.707 3.302h1.511c.24.413.427.858.575 1.321h-2.67a6.568 6.568 0 0 0-.277 1.321h3.222c.022.218.045.436.045.66 0 .223-.013.443-.035.66h-3.232c.046.456.143.896.277 1.321h2.678a6.628 6.628 0 0 1-.585 1.321h-1.509a6.582 6.582 0 0 0 5.707 3.302 6.605 6.605 0 0 0 0-13.208z"/></g><g opacity=".25"><path fill="#FFF" d="M40.03 96.339v17.965c0 1.854-1.517 2.696-3.37 2.696H4.303c-1.854 0-3.37-.843-3.37-2.696V96.339"/><path fill="#FFAA79" d="M40.03 110.933v3.37c0 1.854-1.517 2.696-3.37 2.696H4.303c-1.854 0-3.37-.843-3.37-2.696v-3.37"/><path fill="#3C7491" d="M.933 97.451v-3.37C.933 92.227 2.45 91 4.303 91H36.66c1.854 0 3.37 1.227 3.37 3.081v3.37"/><g fill="#3C7491"><path d="M17.214 108.899h-2.492l1.558-9.049h2.492zM12.625 99.85l-2.376 6.223-.281-1.34v.001l-.839-4.069s-.101-.815-1.182-.815H4.019l-.046.153s1.202.236 2.607 1.035l2.165 7.86h2.597l3.965-9.048h-2.682zM32.23 108.899h2.288l-1.995-9.048h-2.004c-.925 0-1.151.674-1.151.674l-3.717 8.374h2.598l.52-1.344h3.169l.292 1.344zm-2.743-3.201l1.31-3.386.737 3.386h-2.047zM25.846 102.026l.356-1.943s-1.098-.394-2.242-.394c-1.237 0-4.174.511-4.174 2.995 0 2.338 3.447 2.367 3.447 3.594 0 1.227-3.092 1.008-4.112.234l-.371 2.031s1.113.511 2.814.511 4.267-.833 4.267-3.098c0-2.352-3.478-2.572-3.478-3.594-.001-1.023 2.426-.891 3.493-.336z"/></g><path fill="#FFAA79" d="M9.968 104.734l-.839-4.069s-.101-.815-1.182-.815H4.019l-.046.153s1.888.37 3.699 1.755c1.732 1.325 2.296 2.976 2.296 2.976z"/></g></g><g><g opacity=".25"><path opacity=".43" fill="none" stroke="#FFAA79" stroke-width="2.439" stroke-miterlimit="10" d="M141.37 143.915a3.261 3.261 0 0 1-3.252 3.252h-32.52a3.261 3.261 0 0 1-3.252-3.252v-19.512a3.261 3.261 0 0 1 3.252-3.252h32.52a3.261 3.261 0 0 1 3.252 3.252v19.512z"/><path fill="#FCF6F2" d="M141.37 143.94a3.261 3.261 0 0 1-3.252 3.252h-32.52a3.261 3.261 0 0 1-3.252-3.252v-19.512a3.261 3.261 0 0 1 3.252-3.252h32.52a3.261 3.261 0 0 1 3.252 3.252v19.512z"/><path fill="#FFAA79" d="M141.37 139.062v4.878c0 .447-.092.874-.257 1.262a3.285 3.285 0 0 1-1.733 1.733 3.23 3.23 0 0 1-1.262.257h-29.212l32.464-8.13z"/><path fill="#414042" d="M108.928 134.135c0 .872-.248 1.539-.743 2.002-.497.463-1.213.695-2.15.695h-1.5v-5.293h1.661c.865 0 1.535.229 2.012.685.481.456.72 1.093.72 1.911zm-1.165.029c0-1.137-.503-1.705-1.505-1.705h-.598v3.445h.482c1.08.002 1.621-.579 1.621-1.74zM109.877 136.832v-5.293h1.122v5.293h-1.122zM115.457 135.362c0 .479-.171.854-.517 1.13-.344.275-.822.414-1.435.414-.564 0-1.065-.107-1.5-.318v-1.043c.358.161.66.271.907.338.247.064.474.097.679.097.245 0 .435-.048.566-.141a.488.488 0 0 0 .197-.419.457.457 0 0 0-.088-.277.92.92 0 0 0-.256-.234 6.573 6.573 0 0 0-.685-.358c-.323-.152-.565-.299-.728-.438a1.59 1.59 0 0 1-.387-.489 1.395 1.395 0 0 1-.144-.652c0-.468.158-.836.476-1.104.318-.269.756-.402 1.317-.402.275 0 .538.032.787.097.25.064.511.157.784.275l-.362.872a5.233 5.233 0 0 0-.702-.243 2.306 2.306 0 0 0-.545-.069c-.213 0-.377.049-.489.149a.488.488 0 0 0-.171.387c0 .099.023.184.069.259a.757.757 0 0 0 .219.213c.1.069.338.192.712.371.494.237.833.474 1.018.712.186.236.278.528.278.873zM118.664 132.397c-.423 0-.749.16-.981.476-.233.317-.347.761-.347 1.327 0 1.179.443 1.77 1.328 1.77.372 0 .82-.09 1.351-.278v.941c-.435.182-.92.271-1.456.271-.77 0-1.359-.235-1.767-.702-.408-.466-.611-1.137-.611-2.011 0-.551.101-1.033.302-1.446.199-.416.488-.732.863-.952.377-.221.816-.331 1.32-.331.514 0 1.032.124 1.549.373l-.362.912a6.075 6.075 0 0 0-.598-.246 1.788 1.788 0 0 0-.591-.104zM128.999 131.539h1.133l-1.798 5.293h-1.224l-1.795-5.293h1.134l.996 3.15c.055.187.114.402.172.651.057.248.095.418.11.515.026-.222.117-.608.271-1.166l1.001-3.15zM133.846 136.832h-3.049v-5.293h3.049v.92h-1.927v1.162h1.794v.919h-1.794v1.364h1.927v.928zM136.073 134.801v2.031h-1.122v-5.293h1.542c.719 0 1.251.13 1.597.393.344.262.518.658.518 1.193 0 .311-.086.589-.257.831a1.702 1.702 0 0 1-.727.571 209.984 209.984 0 0 0 1.556 2.305h-1.246l-1.264-2.031h-.597zm0-.912h.363c.354 0 .617-.059.785-.177.168-.119.253-.305.253-.558 0-.251-.087-.429-.259-.536s-.439-.159-.801-.159h-.343l.002 1.43z"/><circle fill="#FFAA79" cx="122.785" cy="134.186" r="2.647"/></g><path fill="#4B8FB2" d="M192.356 143.571c0 1.773-1.486 3.224-3.302 3.224h-33.016c-1.816 0-3.302-1.451-3.302-3.224v-19.346c0-1.773 1.486-3.224 3.302-3.224h33.016c1.816 0 3.302 1.451 3.302 3.224v19.346z"/><g fill="none" stroke="#E5E5E5" stroke-width="2.291" stroke-linecap="round" stroke-linejoin="round" stroke-miterlimit="10"><path d="M162.883 137.379l-.355-1.351h-2.342l-.365 1.351h-2.14l2.352-7.237h2.598l2.38 7.237h-2.128zm-.758-2.949l-.311-1.183c-.073-.262-.16-.602-.264-1.02-.103-.418 1.4-1.235-.193-1.217-1.593.018-.1.764-.187 1.148-.087.384-.28 1.142-.579 2.272h1.534zM168.932 137.379l-1.474-5.192h-.044c.069.884.103 1.57.103 2.061v3.13h-1.725v-7.208h2.592l1.504 5.118h.04l1.473-5.118H174v7.208h-1.79v-3.16c0-.164.003-.346.008-.547.005-.201.027-.692.067-1.474h-.044l-1.455 5.182h-1.854zM179.63 137.379h-4.279v-7.208h4.279v1.563h-2.333v1.134h2.16v1.563h-2.16v1.361h2.333v1.587zM187.385 137.379h-2.252l-1.406-2.252-1.389 2.252h-2.204l2.39-3.687-2.248-3.52h2.16l1.302 2.228 1.251-2.228h2.223l-2.282 3.673 2.455 3.534z"/></g><g fill="#3B7491"><path d="M162.883 137.379l-.355-1.351h-2.342l-.365 1.351h-2.14l2.352-7.237h2.598l2.38 7.237h-2.128zm-.758-2.949l-.311-1.183c-.073-.262-.16-.602-.264-1.02a17.795 17.795 0 0 1-.205-.897c-.029.168-.088.443-.175.828-.087.384-.28 1.142-.579 2.272h1.534zM168.932 137.379l-1.474-5.192h-.044c.069.884.103 1.57.103 2.061v3.13h-1.725v-7.208h2.592l1.504 5.118h.04l1.473-5.118H174v7.208h-1.79v-3.16c0-.164.003-.346.008-.547.005-.201.027-.692.067-1.474h-.044l-1.455 5.182h-1.854zM179.63 137.379h-4.279v-7.208h4.279v1.563h-2.333v1.134h2.16v1.563h-2.16v1.361h2.333v1.587zM187.385 137.379h-2.252l-1.406-2.252-1.389 2.252h-2.204l2.39-3.687-2.248-3.52h2.16l1.302 2.228 1.251-2.228h2.223l-2.282 3.673 2.455 3.534z"/></g><g opacity=".25"><path fill="#3C7491" d="M90.979 143.75c0 1.788-1.486 3.25-3.302 3.25H54.662c-1.816 0-3.302-1.462-3.302-3.25v-19.5c0-1.787 1.486-3.25 3.302-3.25h33.016c1.816 0 3.302 1.463 3.302 3.25v19.5z"/><path fill="none" stroke="#005484" stroke-width="1.238" stroke-miterlimit="10" d="M76.122 127.397a6.585 6.585 0 0 0-4.952 2.245 6.652 6.652 0 0 1 .001 0 6.585 6.585 0 0 0-4.952-2.245 6.603 6.603 0 0 0 0 13.206 6.585 6.585 0 0 0 4.952-2.245 6.581 6.581 0 0 0 4.952 2.245 6.604 6.604 0 0 0-.001-13.206zm-3.347 5.943c.022.209.041.418.043.633-.001-.216-.038-.423-.059-.633h.016zm-.284-1.321c-.012-.037-.02-.076-.032-.112.013.038.03.074.042.112h-.01zm-.566-1.321c.136.234.252.481.357.734a6.665 6.665 0 0 0-.362-.734h.005zm-1.505 0a6.582 6.582 0 0 1 0 0zm-.8 2.213c.011-.066.018-.134.031-.2v.001c-.013.065-.019.132-.031.199zm-.039.429c-.022.22-.061.435-.061.66s.039.441.061.66c-.022-.22-.061-.435-.061-.66s.038-.441.061-.66zm.069 1.944c-.012-.061-.018-.123-.029-.185.011.061.017.124.029.185zm.199.697a6.582 6.582 0 0 1 0 0zm.587 1.351a6.603 6.603 0 0 1 0 0zm1.483-.03c.142-.244.266-.5.377-.762-.11.262-.232.518-.373.762h-.004zm.52-1.139c.021-.059.033-.122.052-.182h.017c-.02.062-.048.12-.069.182zm.32-1.503c.022-.214.059-.423.06-.643a6.815 6.815 0 0 1-.034.643h-.026z"/><g fill="#DC5665"><path d="M71.17 129.642a6.585 6.585 0 0 0-4.952-2.245 6.603 6.603 0 0 0 0 13.206 6.582 6.582 0 0 0 4.952-2.246c-1.025-1.163-1.651-2.684-1.651-4.357s.626-3.195 1.651-4.358z"/><path d="M71.17 129.642c-1.025 1.163-1.651 2.686-1.651 4.358s.626 3.194 1.651 4.357c1.025-1.163 1.651-2.684 1.651-4.357s-.626-3.195-1.651-4.358z"/></g><path fill="#FFAA79" d="M76.122 127.397a6.585 6.585 0 0 0-5.707 3.302h1.511c.24.413.427.858.575 1.321h-2.67a6.568 6.568 0 0 0-.277 1.321h3.222c.022.218.045.436.045.66 0 .223-.013.443-.035.66h-3.232c.046.456.143.896.277 1.321h2.678a6.628 6.628 0 0 1-.585 1.321h-1.509a6.582 6.582 0 0 0 5.707 3.302 6.605 6.605 0 0 0 0-13.208z"/></g><g opacity=".25"><path fill="#FFF" d="M40.03 126.339v17.965c0 1.854-1.517 2.696-3.37 2.696H4.303c-1.854 0-3.37-.843-3.37-2.696v-17.965"/><path fill="#FFAA79" d="M40.03 140.933v3.37c0 1.854-1.517 2.696-3.37 2.696H4.303c-1.854 0-3.37-.843-3.37-2.696v-3.37"/><path fill="#3C7491" d="M.933 127.451v-3.37c0-1.854 1.517-3.081 3.37-3.081H36.66c1.854 0 3.37 1.227 3.37 3.081v3.37"/><g fill="#3C7491"><path d="M17.214 138.899h-2.492l1.558-9.049h2.492zM12.625 129.85l-2.376 6.223-.281-1.34v.001l-.839-4.069s-.101-.815-1.182-.815H4.019l-.046.153s1.202.236 2.607 1.035l2.165 7.86h2.597l3.965-9.048h-2.682zM32.23 138.899h2.288l-1.995-9.048h-2.004c-.925 0-1.151.674-1.151.674l-3.717 8.374h2.598l.52-1.344h3.169l.292 1.344zm-2.743-3.201l1.31-3.386.737 3.386h-2.047zM25.846 132.026l.356-1.943s-1.098-.394-2.242-.394c-1.237 0-4.174.511-4.174 2.995 0 2.338 3.447 2.367 3.447 3.594 0 1.227-3.092 1.008-4.112.234l-.371 2.031s1.113.511 2.814.511 4.267-.833 4.267-3.098c0-2.352-3.478-2.572-3.478-3.594-.001-1.023 2.426-.891 3.493-.336z"/></g><path fill="#FFAA79" d="M9.968 134.734l-.839-4.069s-.101-.815-1.182-.815H4.019l-.046.153s1.888.37 3.699 1.755c1.732 1.325 2.296 2.976 2.296 2.976z"/></g></g></g></svg>